<?xml version="1.0" encoding="UTF-8"?>
<svg width="1920px" height="824px" viewBox="0 0 1920 824" version="1.1" xmlns="http://www.w3.org/2000/svg" xmlns:xlink="http://www.w3.org/1999/xlink">
    <!-- Generator: Sketch 53.1 (72631) - https://sketchapp.com -->
    <title>banner text</title>
    <desc>Created with Sketch.</desc>
    <g id="banner-text" stroke="none" stroke-width="1" fill="none" fill-rule="evenodd">
        <rect fill="#BE221F" x="0" y="0" width="1920" height="824"></rect>
        <path d="M860.525004,628.694392 C855.405384,623.000804 850.906334,617.469668 846.987046,612.270053 C834.729259,609.783458 821.711976,607.962336 807.893804,606.957118 C808.132076,609.256921 808.072697,611.535099 807.583054,613.787668 C807.583054,613.787668 807.243956,610.967647 805.54293,606.766361 C735.774354,602.199314 657.437922,541.811822 678.50727,522.141355 C678.50727,522.141355 662.086327,541.865598 669.018732,547.49271 C675.957203,553.116273 728.246668,543.118904 728.246668,543.118904 C728.246668,543.118904 717.879658,554.193934 736.427314,559.159378 L736.119624,559.176259 C766.448011,565.822431 788.450615,577.193431 799.601658,589.905037 C811.972021,591.7199 824.345187,594.179205 836.634782,597.376858 C828.660931,584.873589 825.164558,576.589616 825.164558,576.589616 C829.358959,583.972486 833.700514,591.031875 838.17754,597.782274 C859.802231,603.521229 881.156664,611.561077 901.769446,622.41431 C914.799831,619.441076 927.76195,615.434394 940.290181,610.136601 C940.279298,609.485942 940.310562,609.124454 940.310562,609.124454 C940.315182,609.457331 940.324141,609.788043 940.337321,610.11666 C986.524798,590.571791 1026.80779,553.471261 1042.86096,485.900726 C1042.86096,485.900726 1037.26162,536.949969 1043.66399,543.229852 C1050.07599,549.512264 1068.97175,539.834469 1068.97175,539.834469 L1080.5917,547.711414 C1080.5917,547.711414 1023.21972,550.901347 997.530144,601.738305 C997.530144,601.738305 1005.32685,607.757063 1025.79129,589.696866 C1025.79129,589.696866 1023.81384,594.402635 1010.61821,605.305399 C997.438273,616.207141 986.257779,625.571838 1014.21292,632.921402 C1014.21292,632.921402 1000.83714,637.658693 976.121937,643.580666 C988.285699,646.703092 1004.56933,648.303208 1026.36431,647.089631 C1026.36431,647.089631 1026.76356,646.914627 1027.41921,646.570484 C1022.62619,630.526682 1026.61425,607.95594 1058.28441,579.641567 C1058.28441,579.641567 1036.07321,582.595592 1041.94157,570.024945 C1041.94157,570.024945 1129.11335,554.09721 1186.7818,503.31985 C1188.37261,490.870006 1181.386,481.921702 1161.13844,479.631458 C1161.13844,479.631458 1189.81324,478.483565 1191.96249,498.591618 C1207.30334,484.035189 1220.17112,466.838694 1228.0696,446.521175 C1228.0696,446.521175 1209.03884,467.087234 1199.41206,475.934386 C1199.41206,475.934386 1215.47993,456.065951 1230.46977,422.331636 L1226.98224,420.309642 L1215.96334,420.793687 L1221.47885,411.252143 L1220.97986,400.212744 L1230.52522,405.754888 L1237.35883,405.451881 C1252.9372,363.900533 1263.99792,306.849336 1247.9908,242.002811 C1247.9908,242.002811 1289.14978,280.156353 1301.47749,317.770916 C1301.47749,317.770916 1283.9095,286.355254 1276.51129,301.362913 C1269.11916,316.367022 1245.77213,389.173152 1296.39523,388.50455 C1296.39523,388.50455 1212.62959,440.854991 1238.7285,498.678864 C1238.7285,498.678864 1217.0499,505.938644 1187.66342,518.116444 C1185.57636,522.690557 1182.72061,527.78788 1178.84537,533.522528 C1166.9604,551.088564 1146.94129,573.878603 1125.60217,594.026385 C1126.25905,599.772278 1126.30745,605.970186 1125.42494,612.515037 C1125.42494,612.515037 1119.18731,599.7674 1110.21985,609.713509 C1101.25595,619.665696 1091.7979,658.484289 1107.71635,669.86661 C1107.71635,669.86661 1078.26515,675.727236 1057.77076,671.623521 C1054.69327,671.00893 1049.90924,670.311786 1043.99795,669.399308 C1045.82452,671.218156 1047.8386,673.030353 1050.04792,674.834646 C1050.04792,674.834646 1046.69161,672.909603 1042.47288,669.162871 C1021.59415,665.910582 988.075526,660.002196 965.168373,646.10826 C961.718251,646.874807 958.098166,647.651977 954.312,648.432999 C954.312,648.432999 958.856375,645.539492 960.071042,642.750603 C958.029014,641.286061 956.102796,639.743124 954.313366,638.116984 C950.374847,638.027746 941.972232,638.837332 930.476045,639.815285 C939.713984,646.183392 948.747301,653.19381 957.518618,660.929268 C983.380152,670.723552 1020.05869,677.861926 1041.85526,681.14827 C1042.82582,681.29011 1043.79637,681.431949 1044.77048,681.579866 C1046.36123,681.807499 1047.86287,682.022007 1049.24193,682.194026 C1048.63597,682.132542 1047.95658,682.056912 1047.29288,681.980261 C1069.27949,685.447414 1090.93293,691.197955 1110.18972,700.422961 C1110.18972,700.422961 1053.39885,686.10086 988.309315,691.566422 C993.428926,697.260011 997.927975,702.791147 1001.84726,707.990762 C1014.10505,710.477357 1027.12233,712.298479 1040.94051,713.303698 C1040.70223,711.003894 1040.76161,708.725716 1041.25126,706.473147 C1041.25126,706.473147 1041.59035,709.293168 1043.29138,713.494454 C1113.05996,718.061501 1202.83654,702.020939 1317.06872,647.131569 C1317.06872,647.131569 1414.95839,592.659655 1381.3939,547.22338 C1381.3939,547.22338 1375.11966,532.743216 1351.09771,539.073624 C1351.09771,539.073624 1373.14962,527.010643 1388.0143,522.856836 C1388.0143,522.856836 1389.05669,530.510898 1394.94293,527.197205 C1400.83272,523.889591 1449.88636,426.048262 1424.46459,391.257778 C1424.46459,391.257778 1404.52237,402.918423 1407.70127,451.115471 C1407.70127,451.115471 1401.06078,418.836881 1398.97705,403.544462 C1398.97705,403.544462 1419.19001,379.627176 1412.2214,354.817452 C1405.26494,330.000629 1405.51392,317.748558 1405.51392,317.748558 C1405.51392,317.748558 1452.92915,185.28098 1527.99093,128.242065 C1527.99093,128.242065 1561.40568,102.645035 1596.24101,104.288251 L1582.02628,113.421519 C1582.02628,113.421519 1643.25702,89.536765 1687.55546,110.483754 C1731.86102,131.442897 1801.01213,191.788129 1820.11233,244.456055 C1820.11233,244.456055 1789.34891,204.266092 1759.16706,190.216499 C1759.16706,190.216499 1824.76348,338.267432 1754.18861,486.179068 C1754.18861,486.179068 1763.69645,429.326769 1753.69415,413.944308 C1753.69415,413.944308 1768.25281,409.879823 1766.16214,372.532397 C1764.0836,335.177872 1733.51544,285.997816 1696.75105,314.150348 C1659.99629,342.305409 1674.82285,389.381293 1694.39602,408.03939 C1694.39602,408.03939 1677.06041,394.304696 1663.87633,408.928882 C1650.70438,423.545969 1643.6378,446.134102 1643.6378,446.134102 C1643.6378,446.134102 1632.15678,405.193312 1579.35992,456.489381 L1598.33727,448.273062 C1598.33727,448.273062 1548.73167,568.578006 1509.26464,619.596005 C1509.26464,619.596005 1538.41161,569.24051 1552.89038,529.205468 C1552.89038,529.205468 1461.54525,694.41808 1302.06288,745.437183 C1297.53058,746.889952 1293.12525,748.072641 1288.67055,749.365792 L1289.33299,749.328967 C1289.33299,749.328967 1287.96816,749.654414 1285.53906,750.276274 C1281.25275,751.495374 1277.00074,752.66177 1272.78951,753.730879 C1245.36479,761.44051 1191.39639,778.448993 1170.32704,798.11946 C1170.32704,798.11946 1186.74798,778.395217 1179.81558,772.768105 C1172.87711,767.144542 1120.58764,777.141911 1120.58764,777.141911 C1120.58764,777.141911 1130.95465,766.066881 1112.407,761.101437 L1112.71469,761.084557 C1082.3863,754.438384 1060.38369,743.067384 1049.23265,730.355778 C1036.86229,728.540915 1024.48912,726.08161 1012.19953,722.883958 C1020.17338,735.387227 1023.66975,743.671199 1023.66975,743.671199 C1019.47535,736.288329 1015.1338,729.22894 1010.65677,722.478541 C989.032079,716.739586 967.677646,708.699738 947.064863,697.846505 C934.034479,700.819739 921.072359,704.826421 908.544129,710.124214 C908.555011,710.774873 908.523747,711.136361 908.523747,711.136361 C908.519128,710.803484 908.510168,710.472772 908.496988,710.144156 C862.309511,729.689024 822.026518,766.789554 805.973347,834.360089 C805.973347,834.360089 811.572688,783.310846 805.170315,777.030963 C798.75832,770.748551 779.862561,780.426347 779.862561,780.426347 L768.242612,772.549401 C768.242612,772.549401 825.614588,769.359469 851.304166,718.522511 C851.304166,718.522511 843.507462,712.503752 823.043018,730.563949 C823.043018,730.563949 825.020466,725.85818 838.216095,714.955416 C851.396036,704.053674 862.576531,694.688977 834.621388,687.339414 C834.621388,687.339414 847.997168,682.602122 872.712372,676.68015 C860.548606,673.557723 844.264973,671.957607 822.470002,673.171184 C822.470002,673.171184 822.070751,673.346188 821.415097,673.690332 C826.208116,689.734133 822.220062,712.304875 790.549903,740.619248 C790.549903,740.619248 812.761096,737.665223 806.892741,750.23587 C806.892741,750.23587 719.720964,766.163605 662.052507,816.940965 C660.461695,829.390809 667.448313,838.339113 687.69587,840.629358 C687.69587,840.629358 659.021067,841.77725 656.871817,821.669197 C641.530973,836.225626 628.663186,853.422121 620.764707,873.73964 C620.764707,873.73964 639.795466,853.173581 649.422245,844.326429 C649.422245,844.326429 633.354384,864.194864 618.364538,897.929179 L621.852066,899.951173 L632.870973,899.467128 L627.355455,909.008672 L627.854453,920.048072 L618.309087,914.505928 L611.475478,914.808935 C595.897114,956.360282 584.83639,1013.41148 600.843511,1078.258 C600.843511,1078.258 559.684525,1040.10446 547.356821,1002.4899 C547.356821,1002.4899 564.924812,1033.90556 572.323015,1018.8979 C579.715152,1003.89379 603.062184,931.087663 552.439077,931.756265 C552.439077,931.756265 636.204719,879.405824 610.105812,821.581951 C610.105812,821.581951 631.784407,814.322171 661.170892,802.144371 C663.257947,797.570258 666.113699,792.472935 669.988942,786.738287 C681.873912,769.172251 701.89302,746.382213 723.232135,726.23443 C722.575257,720.488537 722.526859,714.290629 723.409374,707.745778 C723.409374,707.745778 729.646995,720.493415 738.614455,710.547306 C747.578359,700.59512 757.036414,661.776526 741.117964,650.394205 C741.117964,650.394205 770.569155,644.53358 791.063554,648.637295 C794.141036,649.251885 798.925066,649.949029 804.836355,650.861507 C803.009789,649.04266 800.995705,647.230462 798.786386,645.426169 C798.786386,645.426169 802.142701,647.351212 806.361429,651.097944 C827.24016,654.350233 860.758783,660.258619 883.665936,674.152555 C887.116059,673.386008 890.736144,672.608838 894.522309,671.827816 C894.522309,671.827816 889.977934,674.721323 888.763268,677.510212 C890.805296,678.974755 892.731513,680.517692 894.520943,682.143831 C898.459463,682.233069 906.862078,681.423484 918.358264,680.445531 C909.120326,674.077424 900.087008,667.067005 891.315691,659.331547 C865.454157,649.537263 828.775624,642.398889 806.979047,639.112545 C806.008493,638.970706 805.037939,638.828866 804.063828,638.680949 C802.473081,638.453316 800.971441,638.238808 799.592376,638.066789 C800.198344,638.128273 800.877732,638.203903 801.541432,638.280554 C779.554815,634.813401 757.901382,629.06286 738.644588,619.837854 C738.644588,619.837854 795.435465,634.159956 860.525004,628.694392 Z M848.580416,612.597912 C852.723495,618.172055 856.965995,623.5122 861.299788,628.62843 C870.864241,627.802988 880.603379,626.548223 890.363804,624.756235 C877.539769,619.887278 863.637966,615.74004 848.580414,612.597909 Z M738.458721,765.169355 C735.505914,761.160735 728.515916,750.561858 724.937002,735.799932 C701.813999,755.763113 679.422082,779.285477 668.596213,799.039595 C690.242706,789.85068 715.180793,778.286175 738.458721,765.169355 Z M784.880918,734.262449 C788.147097,731.581931 791.243521,728.870822 794.14162,726.133871 C799.478129,718.162833 807.097299,703.981931 800.338651,695.83079 C792.192995,696.763049 780.962071,698.451464 771.306015,701.349894 C765.326157,704.942252 758.638593,709.426549 751.596128,714.564194 C751.129398,716.347872 751.25199,718.287011 752.095629,720.39442 C757.870237,734.829911 774.396175,735.470631 784.880918,734.262449 Z M810.351872,685.681461 C812.31902,689.83215 813.074475,695.867586 812.346764,704.101157 C817.900713,694.582382 820.391955,684.916917 818.735911,675.281169 C815.643927,677.335787 811.567935,680.85514 810.351871,685.681458 Z M881.952789,650.696876 C879.325051,648.163359 876.723853,645.558968 874.150846,642.881322 C858.695001,643.087637 842.076202,642.694016 825.220862,641.189561 C842.013818,643.439793 862.655274,646.614252 881.952789,650.696876 Z M874.33518,642.878832 C877.187836,645.583756 880.183195,648.292585 883.324263,650.989057 C913.600643,657.484457 940.240468,666.229923 942.981332,677.16278 C942.981332,677.16278 937.124285,672.399346 933.903942,676.943156 C933.542908,677.451336 933.170631,678.2597 932.756312,679.285506 C944.905791,678.394514 959.124568,677.592078 974.499129,677.381983 C971.646474,674.677059 968.651115,671.96823 965.510046,669.271758 C935.233666,662.776359 908.593842,654.030892 905.852977,643.098035 C905.852977,643.098035 911.710025,647.861469 914.930368,643.317659 C915.291401,642.809479 915.663678,642.001115 916.077998,640.975309 C903.928519,641.866301 889.709742,642.668737 874.33518,642.878832 Z M896.054696,661.208349 C903.197366,666.566198 910.956653,671.787602 919.357718,676.736391 C915.910107,671.090064 907.303266,665.874994 896.054709,661.208354 Z M974.683463,677.379493 C990.139309,677.173178 1006.75811,677.566799 1023.61345,679.071254 C1006.82049,676.821022 986.179036,673.646563 966.881521,669.563939 C969.509259,672.097456 972.110457,674.701847 974.683463,677.379493 Z M1030.0984,644.979646 C1033.19038,642.925028 1037.26637,639.405675 1038.48244,634.579357 C1036.51529,630.428665 1035.75983,624.393229 1036.48755,616.159658 C1030.9336,625.678433 1028.44235,635.343898 1030.0984,644.979646 Z M1048.49566,624.430026 C1056.64131,623.497766 1067.87223,621.809353 1077.52828,618.910925 C1083.50815,615.318563 1090.19572,610.834266 1097.23818,605.696621 C1097.70491,603.912944 1097.58232,601.973804 1096.73868,599.866396 C1090.96407,585.430904 1074.43813,584.790185 1063.95339,585.998366 C1060.68721,588.678884 1057.59079,591.389994 1054.69269,594.126944 C1049.35618,602.097982 1041.73701,616.278884 1048.49566,624.430026 Z M1110.37559,555.09146 C1113.3284,559.10008 1120.31839,569.698957 1123.89731,584.460884 C1147.02031,564.497702 1169.41223,540.975338 1180.2381,521.22122 C1158.5916,530.410135 1133.65352,541.974641 1110.37559,555.09146 Z M929.476591,643.524424 C932.924202,649.170751 941.531043,654.385821 952.7796,659.052461 C945.636943,653.694617 937.877656,648.473214 929.476591,643.524424 Z M987.534521,691.632385 C977.970069,692.457828 968.230931,693.712593 958.470505,695.504581 C971.294539,700.373536 985.19634,704.520774 1000.25389,707.662905 C996.110816,702.088763 991.868315,696.748616 987.534521,691.632385 Z M1686.72649,290.269641 C1689.94781,277.829315 1690.91416,265.686405 1683.11286,264.107251 C1666.50099,260.739867 1660.01958,289.170982 1660.01958,289.170982 C1660.01958,289.170982 1657.46143,272.955 1651.29241,274.256078 C1645.11733,275.560702 1638.25793,307.293838 1601.31008,316.589774 C1601.31008,316.589774 1629.34437,298.649688 1612.62365,284.558969 L1662.76335,250.883504 C1665.58531,241.055363 1669.21627,229.951063 1673.28834,221.156926 C1682.81856,200.594368 1672.12367,183.47162 1663.04723,174.750867 C1663.04723,174.750867 1642.76996,153.706585 1616.7657,178.010422 L1620.44629,180.139712 L1628.0279,179.806927 L1624.2334,186.375384 L1624.56858,193.961936 L1618.0035,190.159375 L1610.42545,190.498237 L1614.22246,183.920154 L1614.07119,180.655752 C1612.66328,182.1322 1611.25641,183.624351 1609.81922,185.370828 C1580.56122,221.049892 1527.96414,237.215187 1505.86197,244.502547 C1483.76838,251.776731 1476.00947,295.099554 1480.79467,331.221122 C1480.79467,331.221122 1474.32525,333.774727 1472.37344,348.516079 C1472.37344,348.516079 1469.48707,329.026965 1461.80607,325.265522 C1454.11293,321.511177 1447.33967,331.519451 1447.9706,337.064786 L1457.40113,343.106491 C1457.40113,343.106491 1447.06828,359.472354 1448.66076,383.569104 C1450.26287,407.668382 1470.57958,421.641118 1482.37916,425.260566 C1482.37916,425.260566 1471.44954,422.779985 1466.64486,420.427376 C1466.64486,420.427376 1482.03438,456.274846 1472.93594,481.332678 C1472.93594,481.332678 1493.45202,442.096889 1497.22143,436.807591 C1500.98979,431.50259 1504.91101,440.555859 1502.15405,451.110143 C1499.40316,461.660879 1481.93269,526.892372 1481.93269,526.892372 C1481.93269,526.892372 1507.75142,465.505051 1535.15339,443.923917 C1547.30569,434.341378 1573.83531,421.094151 1602.35572,399.225695 C1615.71125,378.660102 1636.44099,348.166972 1639.88043,351.35922 C1641.8887,353.218873 1641.66725,358.50427 1640.65973,364.241455 C1658.58732,344.531573 1675.04951,320.331517 1686.72649,290.269641 Z M1694.95701,229.261187 C1695.03393,225.495857 1694.06087,222.260698 1691.07497,220.800005 C1686.30707,218.479397 1677.81266,231.744389 1670.45654,245.716508 L1694.95701,229.261187 Z M1523.04133,386.555172 L1520.86175,385.293389 L1518.33183,385.395031 L1519.60461,383.214491 L1519.48431,380.698816 L1521.66995,381.95705 L1524.19632,381.849331 L1522.93316,384.032399 L1523.04133,386.555172 Z M1596.82168,233.782101 L1592.88213,231.50249 L1588.33853,231.697396 L1590.61572,227.754397 L1590.40755,223.209865 L1594.34459,225.499103 L1598.88464,225.29812 L1596.61351,229.23757 L1596.82168,233.782101 Z M1519.10935,406.623884 L1513.64849,403.456008 L1507.35183,403.730362 L1510.50188,398.273203 L1510.20792,391.967802 L1515.67485,395.132129 L1521.97758,394.854226 L1518.81791,400.308857 L1519.10935,406.623884 Z M1525.91585,376.535787 L1523.83814,375.336767 L1521.45652,375.441371 L1522.64501,373.36726 L1522.53914,370.973666 L1524.60723,372.170158 L1526.99847,372.068082 L1525.7968,374.133588 L1525.91585,376.535787 Z M1628.78652,212.720853 L1625.26908,210.675571 L1621.20677,210.858064 L1623.24343,207.325026 L1623.05806,203.264785 L1626.5755,205.310066 L1630.64387,205.124024 L1628.60366,208.650985 L1628.78652,212.720853 Z M1614.16297,213.682493 L1611.53389,212.153467 L1608.49589,212.291345 L1610.01925,209.662339 L1609.87301,206.615262 L1612.50921,208.156443 L1615.5472,208.018565 L1614.01422,210.645043 L1614.16297,213.682493 Z M1610.80107,203.706424 L1608.84552,202.590928 L1606.5894,202.687359 L1607.71639,200.73081 L1607.62245,198.468924 L1609.57047,199.613301 L1611.82303,199.510792 L1610.69604,201.467341 L1610.80107,203.706424 Z M726.296208,799.165644 C727.810594,798.246898 729.783499,798.724079 730.703868,800.241344 C731.624237,801.758608 731.144631,803.736092 729.626689,804.648761 C728.119414,805.579661 726.139397,805.090326 725.219028,803.573061 C724.298659,802.055796 724.781821,800.08439 726.296208,799.165644 Z M738.579267,773.663874 C741.60804,771.826382 745.554896,772.796448 747.395635,775.830977 C749.236373,778.865507 748.27967,782.810848 745.250897,784.648339 C742.219614,786.495458 738.269202,785.519315 736.428464,782.484785 C734.587725,779.450256 735.550494,775.501365 738.579267,773.663874 Z M621.064424,981.795657 C622.584877,980.873362 624.557782,981.350543 625.475641,982.877434 C626.402076,984.39115 625.92247,986.368634 624.398461,987.284851 C622.890141,988.200048 620.917235,987.722867 619.996866,986.205602 C619.076497,984.688338 619.556104,982.710854 621.064424,981.795657 Z M629.661573,946.515561 C632.996152,944.490975 637.340015,945.555057 639.358552,948.893448 C641.386711,952.234367 640.333166,956.570848 636.998588,958.595434 C633.670075,960.61647 629.326211,959.552389 627.304118,956.20792 C625.283071,952.879156 626.33306,948.536597 629.661573,946.515561 Z M639.38033,914.307354 C640.300699,915.824619 639.817537,917.796026 638.30315,918.714772 C636.79232,919.639595 634.815859,919.156337 633.891934,917.632995 C632.975121,916.121807 633.458283,914.1504 634.975179,913.222028 C636.4835,912.306832 638.466027,912.78654 639.38033,914.307354 Z M640.349968,925.789267 L644.007763,927.907424 L648.230502,927.720793 L646.123775,931.38457 L646.311031,935.615025 L642.64968,933.490791 L638.426941,933.677422 L640.537224,930.019722 L640.349968,925.789267 Z M618.647222,924.644184 L622.737795,927.014902 L627.453968,926.80876 L625.092057,930.899222 L625.30923,935.626122 L621.215102,933.249327 L616.492863,933.459018 L618.864396,929.371084 L618.647222,924.644184 Z M545.170837,1099.67373 L540.448598,1099.88342 L542.816575,1095.78941 L542.596891,1091.07214 L546.687464,1093.44285 L551.409703,1093.23316 L549.047792,1097.32362 L549.264965,1102.05052 L545.170837,1099.67373 Z M567.234914,1072.32381 L560.286212,1068.29703 L552.271416,1068.65487 L556.2893,1061.7028 L555.922323,1053.68617 L562.871025,1057.71295 L570.879755,1057.35866 L566.867937,1064.30718 L567.234914,1072.32381 Z M543.640127,1063.11629 L541.319151,1061.76593 L538.649087,1061.89247 L539.988381,1059.57511 L539.863685,1056.89885 L542.18466,1058.24921 L544.854725,1058.12267 L543.51543,1060.44003 L543.640127,1063.11629 Z M552.800599,1048.5459 L548.02436,1045.76875 L542.513128,1046.00774 L545.27141,1041.24482 L545.016577,1035.716 L549.796372,1038.49923 L555.310114,1038.25062 L552.543256,1043.02672 L552.800599,1048.5459 Z M1358.15448,408.382207 L1353.98233,405.969485 L1349.17454,406.172129 L1351.57829,402.000083 L1351.35839,397.185038 L1355.52803,399.607387 L1360.3444,399.391566 L1357.93459,403.567162 L1358.15448,408.382207 Z M1384.59147,416.546667 L1380.90732,414.4113 L1376.65927,414.596424 L1378.79026,410.91845 L1378.59129,406.65406 L1382.28507,408.791955 L1386.53312,408.60683 L1384.39606,412.288354 L1384.59147,416.546667 Z M1398.82033,398.684296 L1392.99864,395.303335 L1386.27485,395.599191 L1389.64683,389.783754 L1389.33676,383.047251 L1395.15593,386.43784 L1401.87512,386.120202 L1398.50775,391.95742 L1398.82033,398.684296 Z M962.563722,728.049971 L967.162583,730.718803 L972.475939,730.489549 L969.817012,735.088281 L970.064312,740.409397 L965.455829,737.738037 L960.146029,737.973369 L962.801401,733.36856 L962.563722,728.049971 Z M787.737229,799.868245 L784.973855,798.262793 L781.785046,798.407337 L783.384545,795.644043 L783.231395,792.446006 L785.99477,794.051457 L789.187134,793.91299 L787.593702,796.672735 L787.737229,799.868245 Z M832.806277,785.644137 L839.817312,789.707863 L847.911594,789.360623 L843.862962,796.371469 L844.229103,804.47017 L837.214512,800.400366 L829.127343,800.759761 L833.178484,793.739288 L832.806277,785.644137 Z M854.677601,748.919316 L858.18793,750.952444 L862.224926,750.768444 L860.205421,754.275131 L860.387237,758.329294 L856.882974,756.292618 L852.836356,756.47409 L854.865483,752.969931 L854.677601,748.919316 Z M876.903822,743.068587 L875.553441,745.408745 L875.68023,748.116415 L873.330389,746.758469 L870.621837,746.874896 L871.974727,744.525112 L871.854005,741.813893 L874.201336,743.181466 L876.903822,743.068587 Z M885.480308,748.541333 L890.727812,751.581155 L896.791673,751.312497 L893.754571,756.573038 L894.035348,762.633255 L888.784288,759.587356 L882.726493,759.852466 L885.755018,754.6051 L885.480308,748.541333 Z M897.930736,725.788752 L904.945327,729.858556 L913.032496,729.499162 L908.987421,736.516085 L909.359628,744.611236 L902.33897,740.544982 L894.248245,740.898299 L898.296877,733.887453 L897.930736,725.788752 Z M1137.08258,679.335517 L1143.09377,682.817697 L1150.01795,682.502484 L1146.55227,688.519594 L1146.86527,695.442015 L1140.86725,691.96844 L1133.93596,692.271499 L1137.40269,686.270093 L1137.08258,679.335517 Z M1163.83446,695.302348 L1159.47175,692.772704 L1154.42865,692.990671 L1156.95141,688.618458 L1156.71582,683.567855 L1161.08815,686.100027 L1166.1277,685.875983 L1163.6085,690.254273 L1163.83446,695.302348 Z M1056.22796,731.345003 C1082.06773,754.102682 1151.91532,772.345151 1339.45921,684.242329 C1339.45921,684.242329 1290.43003,707.08972 1220.77672,721.993494 C1220.62067,720.738747 1220.23787,719.486146 1219.54048,718.336043 C1216.90634,713.987325 1211.2585,712.601233 1206.92158,715.236792 C1203.32366,717.423626 1201.92268,721.653401 1202.99996,725.526237 C1158.70582,733.64347 1107.67236,737.896937 1056.22796,731.345003 Z M1182.63623,716.524717 C1183.07508,717.246886 1184.01698,717.478915 1184.73778,717.040838 C1185.46464,716.599212 1185.69493,715.656828 1185.25608,714.934659 C1184.81368,714.206413 1183.86571,713.977934 1183.14491,714.416011 C1182.42412,714.854087 1182.19383,715.796471 1182.63623,716.524717 Z M1192.36018,717.793659 C1193.01239,718.880462 1194.42827,719.22673 1195.51303,718.575692 C1196.60029,717.915027 1196.94038,716.492336 1196.28211,715.409083 C1195.62384,714.325829 1194.21402,713.976012 1193.13031,714.642754 C1192.04305,715.303418 1191.69584,716.713955 1192.36018,717.793659 Z M1231.05903,712.24882 C1232.1526,714.048165 1234.51393,714.632539 1236.31844,713.52772 C1238.13005,712.435056 1238.69793,710.079608 1237.60081,708.274185 C1236.50013,706.462685 1234.14841,705.88084 1232.34642,706.976032 C1230.53229,708.078323 1229.9548,710.431243 1231.05903,712.24882 Z M1233.88312,700.668144 C1234.97418,702.477115 1237.33196,703.055411 1239.14002,701.95667 C1240.95164,700.864006 1241.51595,698.50248 1240.42239,696.703135 C1239.32422,694.882009 1236.97,694.30979 1235.16445,695.398905 C1233.35639,696.497646 1232.78245,698.856644 1233.88312,700.668144 Z M1255.69047,702.673872 C1256.78152,704.482844 1259.14286,705.067217 1260.95092,703.968476 C1262.75898,702.869735 1263.33292,700.510737 1262.23224,698.699237 C1261.13156,696.887737 1258.77734,696.315519 1256.96928,697.41426 C1255.16373,698.503375 1254.58372,700.865922 1255.69047,702.673872 Z M1271.74194,694.717461 L1275.50618,694.554376 L1278.7611,696.443259 L1278.58954,692.68494 L1280.46786,689.424025 L1276.70969,689.583561 L1273.45831,687.700755 L1273.62632,691.452997 L1271.74194,694.717461 Z M1284.45687,682.227797 L1288.20793,682.056107 L1291.46286,683.94499 L1291.28774,680.180594 L1293.17673,676.937911 L1289.42211,677.103524 L1286.16718,675.214641 L1286.33519,678.966882 L1284.45687,682.227797 Z M1231.18855,734.582894 C1231.18855,734.582894 1316.2405,728.697955 1415.48039,657.691162 C1415.48039,657.691162 1427.09693,623.744341 1459.91935,601.128921 C1459.91935,601.128921 1514.94058,535.445969 1528.92784,480.32081 C1528.92784,480.32081 1521.57679,503.605658 1503.74147,508.151618 C1503.74147,508.151618 1422.3359,707.342721 1231.18855,734.582894 Z M1457.31148,295.304472 C1469.6705,235.935434 1511.25195,232.13023 1511.25195,232.13023 C1461.17131,221.925044 1457.31148,295.304472 1457.31148,295.304472 Z M1566.04153,451.498884 C1565.16383,450.054546 1563.28715,449.602644 1561.83593,450.476269 C1560.39434,451.352423 1559.93021,453.231113 1560.81146,454.681528 C1561.68916,456.125866 1563.57045,456.599549 1565.01811,455.719847 C1566.46577,454.840144 1566.92634,452.955376 1566.04153,451.498884 Z M1556.88077,477.702661 C1555.56067,475.530077 1552.72891,474.837541 1550.56652,476.151772 C1548.3945,477.463474 1547.71326,480.293153 1549.02981,482.45966 C1550.34991,484.632244 1553.16954,485.331878 1555.338,484.014099 C1557.50646,482.696319 1558.19125,479.872717 1556.88077,477.702661 Z M1544.25832,474.597333 C1543.37707,473.146918 1541.48721,472.686411 1540.05272,473.574719 C1538.6015,474.448344 1538.14344,476.323485 1539.01863,477.77745 C1539.89988,479.227865 1541.78368,479.691921 1543.22779,478.806141 C1544.67294,477.936065 1545.13958,476.047748 1544.25832,474.597333 Z M1538.98304,493.942834 C1541.14795,492.618978 1541.84592,489.803981 1540.52582,487.631397 C1539.20571,485.458813 1536.37646,484.756651 1534.21156,486.080507 C1532.03954,487.39221 1531.35224,490.225438 1532.67841,492.394473 C1533.98889,494.564529 1536.82065,495.257065 1538.98304,493.942834 Z M1552.64197,500.308551 L1547.22487,500.541406 L1542.5277,497.815887 L1542.78483,503.237304 L1540.06336,507.937894 L1545.48298,507.695412 L1550.1837,510.427008 L1549.93264,505.002042 L1552.64197,500.308551 Z M1058.47579,683.154206 C1058.47579,683.154206 1055.03848,682.83231 1049.24193,682.194026 C1053.46071,682.752089 1056.66165,683.073603 1058.47579,683.154206 Z M1505.87067,353.337885 C1505.87067,353.337885 1483.29929,365.840494 1484.44807,387.256582 C1484.44807,387.256582 1478.29883,381.596624 1472.6461,387.755366 C1466.99589,393.90444 1464.73414,409.491844 1475.18776,417.630897 C1475.18776,417.630897 1460.08878,410.063425 1459.30219,394.129529 C1459.30219,394.129529 1466.27046,382.924284 1462.00603,376.866061 L1505.87067,353.337885 Z M1123.61528,516.687754 C1124.53565,518.205019 1124.05249,520.176426 1122.5381,521.095171 C1121.02372,522.013917 1119.05081,521.536736 1118.13044,520.019472 C1117.21007,518.502207 1117.68968,516.524723 1119.20762,515.612054 C1120.7149,514.681154 1122.69491,515.170489 1123.61528,516.687754 Z M1112.40585,537.77603 C1114.24658,540.810559 1113.28382,544.75945 1110.25504,546.596941 C1107.22627,548.434433 1103.27941,547.464367 1101.43867,544.429838 C1099.59794,541.395308 1100.55464,537.449967 1103.58341,535.612476 C1106.6147,533.765358 1110.56511,534.7415 1112.40585,537.77603 Z M1228.83744,334.055213 C1229.75781,335.572478 1229.27821,337.549962 1227.76989,338.465158 C1226.24943,339.387453 1224.27653,338.910272 1223.35867,337.383381 C1222.43223,335.869665 1222.91184,333.892182 1224.43585,332.975964 C1225.94417,332.060767 1227.91707,332.537948 1228.83744,334.055213 Z M1221.53019,364.052895 C1223.55124,367.381659 1222.50125,371.724218 1219.17274,373.745255 C1215.83816,375.76984 1211.49429,374.705759 1209.47576,371.367367 C1207.4476,368.026449 1208.50114,363.689967 1211.83572,361.665381 C1215.16423,359.644345 1219.5081,360.708427 1221.53019,364.052895 Z M1213.85913,407.038787 C1212.35081,407.953984 1210.36828,407.474275 1209.45398,405.953461 C1208.53361,404.436196 1209.01677,402.464789 1210.53116,401.546044 C1212.04199,400.621221 1214.01845,401.104479 1214.94238,402.627821 C1215.85919,404.139008 1215.37603,406.110415 1213.85913,407.038787 Z M1208.48434,394.471548 L1204.82655,392.353391 L1200.60381,392.540022 L1202.71053,388.876245 L1202.52328,384.64579 L1206.18463,386.770024 L1210.40737,386.583394 L1208.29709,390.241093 L1208.48434,394.471548 Z M1230.18709,395.616631 L1226.09651,393.245913 L1221.38034,393.452055 L1223.74225,389.361593 L1223.52508,384.634693 L1227.61921,387.011488 L1232.34145,386.801797 L1229.96991,390.889731 L1230.18709,395.616631 Z M1303.66347,220.587086 L1308.38571,220.377395 L1306.01773,224.471407 L1306.23742,229.18868 L1302.14685,226.817962 L1297.42461,227.027654 L1299.78652,222.937191 L1299.56934,218.210291 L1303.66347,220.587086 Z M1281.5994,247.937008 L1288.5481,251.963786 L1296.56289,251.60595 L1292.54501,258.558015 L1292.91199,266.574647 L1285.96328,262.547869 L1277.95455,262.902156 L1281.96637,255.95364 L1281.5994,247.937008 Z M1305.19418,257.144524 L1307.51516,258.494886 L1310.18522,258.368347 L1308.84593,260.685702 L1308.97062,263.361964 L1306.64965,262.011602 L1303.97958,262.138141 L1305.31888,259.820786 L1305.19418,257.144524 Z M1296.03371,271.714911 L1300.80995,274.49206 L1306.32118,274.253076 L1303.5629,279.015996 L1303.81773,284.544812 L1299.03794,281.761585 L1293.5242,282.010196 L1296.29105,277.2341 L1296.03371,271.714911 Z M886.270587,592.210844 L881.671726,589.542012 L876.35837,589.771266 L879.017298,585.172534 L878.769997,579.851418 L883.37848,582.522778 L888.68828,582.287446 L886.032908,586.892255 L886.270587,592.210844 Z M1061.09708,520.392571 L1063.86045,521.998022 L1067.04926,521.853478 L1065.44977,524.616772 L1065.60291,527.814809 L1062.83954,526.209358 L1059.64718,526.347825 L1061.24061,523.58808 L1061.09708,520.392571 Z M1016.02803,534.616679 L1009.017,530.552952 L1000.92272,530.900192 L1004.97135,523.889346 L1004.60521,515.790646 L1011.6198,519.860449 L1019.70697,519.501055 L1015.65583,526.521527 L1016.02803,534.616679 Z M994.156708,571.341499 L990.646379,569.308372 L986.609384,569.492371 L988.628889,565.985684 L988.447073,561.931521 L991.951336,563.968197 L995.997953,563.786725 L993.968827,567.290885 L994.156708,571.341499 Z M971.930488,577.192228 L973.280868,574.85207 L973.15408,572.144401 L975.503921,573.502346 L978.212473,573.385919 L976.859583,575.735703 L976.980305,578.446922 L974.632974,577.07935 L971.930488,577.192228 Z M963.354001,571.719482 L958.106497,568.67966 L952.042637,568.948319 L955.079738,563.687777 L954.798962,557.62756 L960.050022,560.673459 L966.107816,560.40835 L963.079291,565.655715 L963.354001,571.719482 Z M950.903574,594.472063 L943.888983,590.402259 L935.801813,590.761654 L939.846889,583.74473 L939.474682,575.649579 L946.495339,579.715833 L954.586064,579.362516 L950.537433,586.373362 L950.903574,594.472063 Z M711.75173,640.925298 L705.740538,637.443118 L698.816359,637.758331 L702.282042,631.741221 L701.969044,624.8188 L707.967058,628.292375 L714.89835,627.989316 L711.43162,633.990723 L711.75173,640.925298 Z M684.99985,624.958467 L689.362555,627.488111 L694.405662,627.270145 L691.882902,631.642357 L692.118486,636.69296 L687.746159,634.160788 L682.706608,634.384832 L685.225812,630.006542 L684.99985,624.958467 Z M628.057588,598.267322 C628.213644,599.522069 628.596441,600.77467 629.29383,601.924773 C631.927968,606.27349 637.575806,607.659583 641.912725,605.024023 C645.510648,602.837189 646.911627,598.607415 645.834353,594.734578 C690.128492,586.617345 741.161951,582.363878 792.606346,588.915812 C766.766582,566.158133 558.404278,613.171095 628.057588,598.267322 Z M664.09653,603.219977 C664.817328,602.781901 665.759227,603.013929 666.198076,603.736098 C666.64048,604.464344 666.410194,605.406728 665.689396,605.844805 C664.968598,606.282881 664.020633,606.054402 663.578229,605.326156 C663.13938,604.603987 663.369666,603.661604 664.09653,603.219977 Z M653.321284,601.685123 C654.406037,601.034085 655.821919,601.380353 656.474126,602.467156 C657.138465,603.54686 656.791257,604.957397 655.703995,605.618061 C654.620288,606.284803 653.210472,605.934986 652.552199,604.851733 C651.893926,603.768479 652.234022,602.345788 653.321284,601.685123 Z M799.592376,638.066789 C795.373602,637.508727 792.172657,637.187212 790.358517,637.106609 C790.358517,637.106609 793.795825,637.428506 799.592376,638.066789 Z" id="Combined-Shape" fill="#000000" opacity="0.199999988" transform="translate(1179.380709, 601.964766) rotate(20.521495) translate(-1179.380709, -601.964766) "></path>
        <path d="M571.47027,662.828283 C624.789189,640.707071 652.189189,638.494949 681.07027,636.282829 C709.210811,633.333334 738.832432,631.121212 794.372973,609 C798.075676,614.89899 801.778379,627.434343 804,641.444444 C746.978379,656.191919 718.097297,655.454545 690.697297,653.979798 C662.556756,653.242425 632.935135,651.767677 575.913514,667.252525 C556.659459,671.676768 541.848649,676.838384 530,682 C540.367568,676.10101 553.697297,669.464647 571.47027,662.828283 Z M576.364116,682.5 C632.168866,668.25 659.699208,669 688.717678,670.5 C716.992085,671.25 746.754618,672.75 805.53562,657 L810,693.75 C752.707124,700.5 724.432717,695.25 697.646438,690.75 C669.372032,685.5 640.353562,681 581.572559,688.5 C558.506596,691.5 541.39314,694.5 528,699 C539.905013,693.75 555.530343,688.5 576.364116,682.5 Z M240.891051,655.652174 L229,632 L268.389105,636.434782 C297.373541,639.391304 324.871595,641.608696 378.381323,663.043478 C395.474708,670.434782 409.595331,677.086956 420,683 C408.108949,677.826087 393.245136,672.652174 373.922179,667.478261 C315.953307,652.695652 286.968872,653.434782 258.727627,654.913044 L240.891051,655.652174 Z M194,696 C178.32,696 160.4,695.264151 138,693.056603 L142.48,657 L158.906667,661.415094 C169.36,673.924528 181.306667,685.698113 194,696 Z M251,669.749124 L259.894737,669.749124 C288.802632,668.262236 316.22807,667.518792 371.820175,682.387674 C392.574561,687.591782 408.140351,692.795891 420,698 C406.657895,693.539335 389.609649,690.565559 366.631579,687.591782 C316.22807,680.900786 288.061404,683.874563 263.600877,687.591782 L251,669.749124 Z M241,728.217391 C216.425532,735.608696 188.87234,743 136,743 L138.234043,709 C171,712.695652 194.085106,712.695652 213.446808,711.217391 C222.382979,717.869565 231.319149,723.043478 241,728.217391 Z M275,702.345179 C320.834096,697.386306 367.210086,700.305657 412,710.969276 C370.036042,705.927026 327.502853,707.626681 286.108108,716 L277.962162,705.938553 C276.963071,704.749892 275.97564,703.552047 275,702.345179 L275,702.345179 Z M253.478345,431 C277.977371,438.410257 294.310054,439.892308 310.642738,441.374359 C333.656975,442.85641 355.928817,445.079487 398.987711,462.864103 C458.37929,486.576923 468.772816,493.98718 471,521.405128 L471,720 L470.257606,718.517948 L468.772816,714.071795 C465.803237,701.474359 461.348869,679.984615 382.655027,648.120513 C327.717817,625.889743 298.764423,623.666667 270.553423,620.702564 C256.447923,619.961538 241.600029,618.479487 223.040161,614.774359 C220.812976,607.364103 220.070582,600.694872 220.070582,595.507692 C220.812976,588.097436 223.040161,583.651282 229.721713,580.68718 L249.76637,569.571795 L234.918476,551.78718 C219.328186,533.261538 214.873818,516.217948 220.070582,499.174359 C223.782555,485.094872 235.660871,471.75641 250.508766,462.123077 L267.583844,450.266667 L254.963134,434.705128 C254.350092,433.52057 253.852863,432.279791 253.478345,431 Z M695.625337,705.553071 C723.051213,710.046702 751.959568,715.289272 809.77628,708.548825 L812,743 C754.183288,742.251061 726.757413,734.012737 700.072776,725.774413 C673.38814,717.536088 645.221024,708.548825 585.921833,708.548825 C565.908356,708.548825 550.342318,710.046702 537,711.544579 C588.90311,698.535526 642.905796,696.495766 695.625337,705.553071 L695.625337,705.553071 Z M717.854503,489.487254 L717.854503,490.230013 C718.598271,474.632059 712.648127,454.577548 700.00407,430.066477 L730.498559,419.667842 L790,594.95913 C735.704935,616.499162 706.697982,618.727441 679.178566,620.95572 C650.915382,623.926759 621.908429,626.155038 566.869596,648.437829 C488.030187,680.376496 483.567579,701.916527 480.592507,714.543442 L479.848739,717.51448 L479.848739,522.91144 C478.361203,493.201052 449.35425,458.291346 424.809906,433.037517 C392.084113,403.327129 365.308464,404.069888 343.739192,414.468524 C343.739192,414.468524 374.977449,336.478756 300.600647,362.475346 C200.935734,397.385051 239.61167,445.664431 239.61167,445.664431 C207.629646,466.461703 176.39139,512.512804 220.273702,563.763223 C159.284725,596.44465 262.668479,719 262.668479,719 C106.477196,643.238511 84.1641557,453.092028 100.527052,369.902942 C118.764975,253.790278 191.069028,153.197905 295.394271,98.7956527 C302.088184,95.0818541 306.550791,90.625296 313.988472,95.0818541 C320.682384,98.0528933 319.938616,132.962599 318.45108,149.303312 L319.938616,150.046072 C340.020352,158.216429 376.464985,155.988149 403.240634,149.303312 C427.04121,141.875715 457.535698,141.132956 470.179755,141.132956 C470.923522,141.132956 471.66729,139.647436 470.179755,138.904677 C456.048162,134.448118 433.735122,137.419157 421.091066,137.419157 C389.852809,138.904677 358.614553,130.734319 331.095136,103.994971 C320.987394,93.9245982 315.131106,80.3670632 314.732239,66.114226 C313.988472,62.4004275 318.45108,60.9149081 319.938616,63.8859469 C332.582672,81.7121796 365.308464,112.908087 426.297441,109.937048 C459.767002,108.451529 489.517723,113.650847 508.111923,117.364645 C510.343227,100.281172 514.805835,81.7121796 525.218588,63.1431873 C526.706124,60.1721484 531.168732,60.1721484 531.912499,63.8859469 C537.862643,82.4549394 553.481772,127.763281 585.463797,150.046072 C594.389013,156.730909 602.570461,165.644025 607.033069,175.299901 C621.204794,203.577887 644.168281,226.510243 672.484654,240.662755 C681.40987,245.862073 683.641174,257.003468 676.947262,263.688306 C667.278278,274.086941 652.402918,285.228337 633.808717,288.199375 C632.321181,288.199375 632.321181,287.456616 632.321181,285.971096 C634.552486,282.257298 639.758861,272.601422 640.50263,265.916585 C640.50263,265.173825 639.758861,264.431065 639.015093,265.173825 C634.552486,267.402104 624.883501,271.858662 609.264373,269.630383 C607.776837,268.887623 607.776837,267.402104 608.520605,267.402104 C612.983213,265.173825 618.933357,260.717267 621.164661,253.289669 C621.908429,252.54691 620.420893,251.804151 620.420893,251.804151 C615.958285,254.03243 606.289301,257.746228 592.901476,255.517949 C591.413941,255.517949 591.413941,253.289669 592.157709,253.289669 C596.620316,251.06139 601.826693,248.090352 603.314229,238.434476 C598.107853,236.206197 578.026116,231.006879 557.94438,233.235158 C556.456844,233.977918 556.456844,234.720677 557.200612,235.463437 L569.1009,244.376553 C579.513653,252.54691 586.207564,260.717267 592.157709,268.144864 C594.389013,270.373143 597.364085,273.344182 601.826693,275.572461 C607.033069,278.543499 612.983213,278.543499 616.702053,277.05798 C617.445821,277.05798 618.933357,278.543499 618.189589,279.286259 C615.958285,281.514538 612.239445,284.485577 608.520605,285.971096 C602.570461,287.456616 613.726981,292.655934 624.139733,292.655934 C630.833645,292.655934 638.271326,291.170414 641.246397,290.427655 C642.733934,290.427655 643.477701,291.170414 642.733934,291.913174 C639.758861,297.112492 631.577413,309.739406 615.214517,312.710446 L611.495677,313.453205 C598.85162,313.453205 587.695101,305.282848 583.976261,293.398693 L583.232492,291.913174 C583.232492,291.913174 580.25742,281.514538 570.588436,271.115903 C560.919452,260.717267 539.35018,248.833111 511.830763,244.376553 C495.467867,249.575872 482.080043,265.173825 481.336274,282.257298 C481.336274,291.913174 484.311347,301.56905 488.030187,310.482167 C498.442939,336.478756 532.656268,348.362911 556.456844,360.247066 C577.282348,369.902942 597.364085,379.558818 618.933357,386.986415 C636.040021,392.928493 653.146686,398.127811 668.022046,409.269206 C694.112435,428.827175 711.897181,457.456258 717.854503,489.487254 Z M317.970882,156 L317.970882,157.476636 C316.495702,167.074766 296.58079,307.35514 362.226243,314 C362.226243,263.056075 392.467407,232.046729 402.056069,222.448598 C402.793659,221.71028 402.056069,220.971962 401.318479,220.971962 C380.665977,226.140187 382.878745,213.588785 344.524098,256.411215 C347.474456,244.598131 351.899992,232.046729 359.275886,221.71028 C364.439012,214.327103 370.339726,207.682243 378.453209,202.514018 C386.566692,196.607477 396.155354,193.654205 405.744015,190.700934 L424.921339,183.317757 L434.510001,178.887851 L441.148305,175.196262 C442.623484,174.457944 441.885894,173.719626 441.148305,173.719626 L435.247591,173.719626 L427.134107,175.196262 C421.233393,175.934579 416.070267,177.411215 410.169552,177.411215 C404.268837,178.887851 397.630533,178.887851 391.729817,179.626169 C350.424814,182.579439 328.297133,167.074766 317.970882,156 Z M567.075019,180.435728 L567.075019,185.758122 C567.075019,188.799491 568.623276,193.361543 571.719791,194.882227 L584.879976,204.006332 C588.750619,207.0477 592.621262,202.485647 590.298876,198.683937 L574.042176,178.154702 C571.719791,174.352992 566.300891,175.873676 567.075019,180.435728 Z" id="Shape" fill="#FFFFFF" fill-rule="nonzero"></path>
        <path d="M886.85,344.33 L886.85,397.97 L893.51,397.97 C902.690046,397.97 909.529977,395.705023 914.03,391.175 C918.530022,386.644977 920.78,379.670047 920.78,370.25 C920.78,352.969914 911.690091,344.33 893.51,344.33 L886.85,344.33 Z M927.71,370.25 C927.71,381.410056 924.75503,389.824972 918.845,395.495 C912.93497,401.165028 904.280057,404 892.88,404 L879.65,404 L879.65,338.3 L892.88,338.3 C904.340057,338.3 913.009971,341.014973 918.89,346.445 C924.770029,351.875027 927.71,359.809948 927.71,370.25 Z M959.84,337.4 C965.300027,337.4 969.484985,338.539989 972.395,340.82 C975.305015,343.100011 976.76,346.24998 976.76,350.27 C976.76,353.570017 975.71001,356.614986 973.61,359.405 C971.509989,362.195014 967.760027,365.389982 962.36,368.99 L978.47,386 C980.630011,381.91998 982.159996,376.940029 983.06,371.06 L989.99,371.06 C988.789994,379.04004 986.450017,385.639974 982.97,390.86 L995.39,404 L986.75,404 L979.01,395.9 C973.189971,401.90003 965.960043,404.9 957.32,404.9 C950.419965,404.9 945.185018,403.505014 941.615,400.715 C938.044982,397.924986 936.26,393.920026 936.26,388.7 C936.26,385.339983 937.489988,382.070016 939.95,378.89 C942.410012,375.709984 946.63997,372.14002 952.64,368.18 L951.56,367.01 C948.259983,363.589983 945.935007,360.620013 944.585,358.1 C943.234993,355.579987 942.56,353.090012 942.56,350.63 C942.56,346.66998 944.104985,343.475012 947.195,341.045 C950.285015,338.614988 954.499973,337.4 959.84,337.4 Z M958.22,364.58 C963.080024,361.339984 966.274992,358.775009 967.805,356.885 C969.335008,354.994991 970.1,352.910011 970.1,350.63 C970.1,348.229988 969.230009,346.370007 967.49,345.05 C965.749991,343.729993 963.200017,343.07 959.84,343.07 C956.659984,343.07 954.170009,343.759993 952.37,345.14 C950.569991,346.520007 949.67,348.349989 949.67,350.63 C949.67,352.55001 950.179995,354.379991 951.2,356.12 C952.220005,357.860009 954.559982,360.67998 958.22,364.58 Z M974.78,391.4 L956.78,372.5 C951.919976,375.680016 948.48501,378.514988 946.475,381.005 C944.46499,383.495012 943.46,385.969988 943.46,388.43 C943.46,391.850017 944.674988,394.489991 947.105,396.35 C949.535012,398.210009 953.029977,399.14 957.59,399.14 C964.550035,399.14 970.279977,396.560026 974.78,391.4 Z M1010.69,344.33 L1010.69,397.97 L1017.35,397.97 C1026.53005,397.97 1033.36998,395.705023 1037.87,391.175 C1042.37002,386.644977 1044.62,379.670047 1044.62,370.25 C1044.62,352.969914 1035.53009,344.33 1017.35,344.33 L1010.69,344.33 Z M1051.55,370.25 C1051.55,381.410056 1048.59503,389.824972 1042.685,395.495 C1036.77497,401.165028 1028.12006,404 1016.72,404 L1003.49,404 L1003.49,338.3 L1016.72,338.3 C1028.18006,338.3 1036.84997,341.014973 1042.73,346.445 C1048.61003,351.875027 1051.55,359.809948 1051.55,370.25 Z M1125.53,344.33 L1097.09,344.33 L1095.83,365.57 L1096.01,365.57 C1099.55002,363.469989 1103.53998,362.42 1107.98,362.42 C1114.40003,362.42 1119.37998,364.159983 1122.92,367.64 C1126.46002,371.120017 1128.23,376.039968 1128.23,382.4 C1128.23,389.720037 1126.17502,395.299981 1122.065,399.14 C1117.95498,402.980019 1111.94004,404.9 1104.02,404.9 C1098.25997,404.9 1092.92002,403.760011 1088,401.48 L1088,394.64 C1093.46003,397.460014 1098.79997,398.87 1104.02,398.87 C1109.60003,398.87 1113.82999,397.475014 1116.71,394.685 C1119.59001,391.894986 1121.03,387.800027 1121.03,382.4 C1121.03,377.779977 1119.80001,374.255012 1117.34,371.825 C1114.87999,369.394988 1111.34002,368.18 1106.72,368.18 C1101.97998,368.18 1098.05002,369.559986 1094.93,372.32 L1088.63,372.32 L1090.61,338.3 L1125.53,338.3 L1125.53,344.33 Z M1145.78,382.4 C1146.14,393.920058 1151.56995,399.68 1162.07,399.68 C1166.15002,399.68 1170.58998,398.69001 1175.39,396.71 L1175.39,402.65 C1170.46998,404.150008 1165.82002,404.9 1161.44,404.9 C1154.05996,404.9 1148.45002,402.87502 1144.61,398.825 C1140.76998,394.77498 1138.85,388.700041 1138.85,380.6 C1138.85,372.259958 1140.69498,366.12502 1144.385,362.195 C1148.07502,358.26498 1153.12997,356.3 1159.55,356.3 C1172.15006,356.3 1178.45,364.189921 1178.45,379.97 C1178.45,380.510003 1178.39,381.319995 1178.27,382.4 L1145.78,382.4 Z M1145.78,377.09 L1171.7,377.09 C1171.52,366.709948 1167.47004,361.52 1159.55,361.52 C1150.96996,361.52 1146.38,366.709948 1145.78,377.09 Z M1217.15,404 L1217.15,336.5 L1224.35,336.5 L1224.35,404 L1217.15,404 Z M1243.97,362.69 C1247.75002,358.429979 1252.99997,356.3 1259.72,356.3 C1266.44003,356.3 1271.68998,358.429979 1275.47,362.69 C1279.25002,366.950021 1281.14,372.919962 1281.14,380.6 C1281.14,388.280038 1279.25002,394.249979 1275.47,398.51 C1271.68998,402.770021 1266.44003,404.9 1259.72,404.9 C1252.99997,404.9 1247.75002,402.770021 1243.97,398.51 C1240.18998,394.249979 1238.3,388.280038 1238.3,380.6 C1238.3,372.919962 1240.18998,366.950021 1243.97,362.69 Z M1245.32,380.6 C1245.32,393.200063 1250.11995,399.5 1259.72,399.5 C1269.32005,399.5 1274.12,393.200063 1274.12,380.6 C1274.12,367.999937 1269.32005,361.7 1259.72,361.7 C1250.11995,361.7 1245.32,367.999937 1245.32,380.6 Z M1294.01,362.69 C1297.79002,358.429979 1303.03997,356.3 1309.76,356.3 C1316.48003,356.3 1321.72998,358.429979 1325.51,362.69 C1329.29002,366.950021 1331.18,372.919962 1331.18,380.6 C1331.18,388.280038 1329.29002,394.249979 1325.51,398.51 C1321.72998,402.770021 1316.48003,404.9 1309.76,404.9 C1303.03997,404.9 1297.79002,402.770021 1294.01,398.51 C1290.22998,394.249979 1288.34,388.280038 1288.34,380.6 C1288.34,372.919962 1290.22998,366.950021 1294.01,362.69 Z M1295.36,380.6 C1295.36,393.200063 1300.15995,399.5 1309.76,399.5 C1319.36005,399.5 1324.16,393.200063 1324.16,380.6 C1324.16,367.999937 1319.36005,361.7 1309.76,361.7 C1300.15995,361.7 1295.36,367.999937 1295.36,380.6 Z M1348.82,336.5 L1348.82,378.08 L1349,378.08 L1371.68,357.2 L1380.23,357.2 L1355.57,379.7 L1380.32,404 L1371.86,404 L1349,381.32 L1348.82,381.32 L1348.82,404 L1341.98,404 L1341.98,336.5 L1348.82,336.5 Z M1390.67,357.2 L1397.42,357.2 L1397.42,385.37 C1397.42,390.770027 1398.22999,394.47499 1399.85,396.485 C1401.47001,398.49501 1404.04998,399.5 1407.59,399.5 C1410.83002,399.5 1413.88999,398.105014 1416.77,395.315 C1419.65001,392.524986 1421.09,389.480017 1421.09,386.18 L1421.09,357.2 L1428.02,357.2 L1428.02,404 L1421.54,404 L1421.45,396.98 L1421.27,396.98 C1417.12998,402.260026 1411.97003,404.9 1405.79,404.9 C1400.56997,404.9 1396.74501,403.460014 1394.315,400.58 C1391.88499,397.699986 1390.67,392.930033 1390.67,386.27 L1390.67,357.2 Z M1441.52,357.2 L1448,357.2 L1448.18,363.95 L1448.36,363.95 C1452.32002,358.849975 1457.35997,356.3 1463.48,356.3 C1469.30003,356.3 1473.90498,358.414979 1477.295,362.645 C1480.68502,366.875021 1482.38,372.859961 1482.38,380.6 C1482.38,388.100037 1480.62502,394.024978 1477.115,398.375 C1473.60498,402.725022 1469.06003,404.9 1463.48,404.9 C1457.29997,404.9 1452.35002,402.560023 1448.63,397.88 L1448.45,397.88 L1448.45,423.8 L1441.52,423.8 L1441.52,357.2 Z M1475.45,380.6 C1475.45,367.999937 1470.95005,361.7 1461.95,361.7 C1458.28998,361.7 1455.12501,362.944988 1452.455,365.435 C1449.78499,367.925012 1448.45,370.849983 1448.45,374.21 L1448.45,386.99 C1448.45,390.410017 1449.79999,393.349988 1452.5,395.81 C1455.20001,398.270012 1458.34998,399.5 1461.95,399.5 C1466.21002,399.5 1469.52499,397.895016 1471.895,394.685 C1474.26501,391.474984 1475.45,386.780031 1475.45,380.6 Z" id="D&amp;D5elookup" fill="#FFFFFF" fill-rule="nonzero"></path>
        <path d="M897.95,258.85 C895.649988,260.150007 892.750018,261.499993 889.25,262.9 C885.749982,264.300007 882.100019,265 878.3,265 C875.999988,265 874.350005,264.800002 873.35,264.4 C872.349995,263.999998 871.85,263.200006 871.85,262 C871.85,261.399997 871.999998,260.675004 872.3,259.825 C872.600001,258.974996 872.999997,258.55 873.5,258.55 C873.700001,258.55 873.949998,258.699998 874.25,259 C874.850003,259.800004 875.749994,260.25 876.95,260.35 C878.150006,260.45 879.449993,260.5 880.85,260.5 C882.95001,260.4 884.849991,259.675007 886.55,258.325 C888.250009,256.974993 889.499996,255.150012 890.3,252.85 C890.700002,251.449993 891.099998,249.250015 891.5,246.25 C891.900002,243.249985 892.224999,239.650021 892.475,235.45 C892.725001,231.249979 892.924999,226.575026 893.075,221.425 C893.225001,216.274974 893.3,210.850029 893.3,205.15 C893.3,192.149935 892.950003,182.025036 892.25,174.775 C891.549997,167.524964 890.650006,163.350006 889.55,162.25 C888.449995,161.349996 887.075008,160.750001 885.425,160.45 C883.774992,160.149998 882.100008,160 880.4,160 C879.599996,160 878.800004,160.025 878,160.075 C877.199996,160.125 876.550003,160.15 876.05,160.15 C875.449997,160.15 874.975002,159.925002 874.625,159.475 C874.274998,159.024998 874.1,158.550003 874.1,158.05 C874.1,156.249991 874.749993,155.35 876.05,155.35 C876.750004,155.35 877.999991,155.424999 879.8,155.575 C881.600009,155.725001 883.674988,155.874999 886.025,156.025 C888.375012,156.175001 890.849987,156.3 893.45,156.4 C896.050013,156.5 898.399989,156.55 900.5,156.55 C903.100013,156.55 905.524989,156.150004 907.775,155.35 C910.025011,154.549996 912.349988,153.650005 914.75,152.65 C917.150012,151.649995 919.774986,150.750004 922.625,149.95 C925.475014,149.149996 928.799981,148.75 932.6,148.75 C942.400049,148.75 950.824965,150.149986 957.875,152.95 C964.925035,155.750014 970.699977,159.524976 975.2,164.275 C979.700022,169.025024 983.024989,174.474969 985.175,180.625 C987.325011,186.775031 988.4,193.149967 988.4,199.75 C988.4,207.550039 987.025014,215.349961 984.275,223.15 C981.524986,230.950039 977.600026,237.974969 972.5,244.225 C967.399974,250.475031 961.225036,255.524981 953.975,259.375 C946.724964,263.225019 938.650045,265.15 929.75,265.15 C927.84999,265.15 925.475014,264.975002 922.625,264.625 C919.774986,264.274998 916.850015,263.800003 913.85,263.2 C910.849985,262.599997 907.925014,261.925004 905.075,261.175 C902.224986,260.424996 899.850009,259.650004 897.95,258.85 Z M933.2,259 C939.10003,259 944.249978,257.575014 948.65,254.725 C953.050022,251.874986 956.724985,248.125023 959.675,243.475 C962.625015,238.824977 964.849992,233.50003 966.35,227.5 C967.850007,221.49997 968.6,215.350032 968.6,209.05 C968.6,202.349966 967.775008,195.725033 966.125,189.175 C964.474992,182.624967 961.950017,176.775026 958.55,171.625 C955.149983,166.474974 950.925025,162.325016 945.875,159.175 C940.824975,156.024984 934.950034,154.45 928.25,154.45 C927.149995,154.45 925.800008,154.574999 924.2,154.825 C922.599992,155.075001 921.050007,155.549996 919.55,156.25 C918.049993,156.950004 916.700006,157.849995 915.5,158.95 C914.299994,160.050005 913.500002,161.449992 913.1,163.15 C912.799999,164.450007 912.525001,166.249989 912.275,168.55 C912.024999,170.850011 911.775001,173.524985 911.525,176.575 C911.274999,179.625015 911.1,182.924982 911,186.475 C910.9,190.025018 910.85,193.699981 910.85,197.5 C910.85,206.100043 910.875,213.299971 910.925,219.1 C910.975,224.900029 911.05,229.599982 911.15,233.2 C911.25,236.800018 911.374999,239.474991 911.525,241.225 C911.675001,242.975009 911.8,244.149997 911.9,244.75 C912.200001,246.450008 912.924994,248.124992 914.075,249.775 C915.225006,251.425008 916.724991,252.949993 918.575,254.35 C920.425009,255.750007 922.574988,256.874996 925.025,257.725 C927.475012,258.575004 930.199985,259 933.2,259 Z M1065.8,198.25 C1064.69999,199.150004 1063.40001,200.274993 1061.9,201.625 C1060.39999,202.975007 1058.82501,204.274994 1057.175,205.525 C1055.52499,206.775006 1053.85001,207.849996 1052.15,208.75 C1050.44999,209.650004 1048.80001,210.1 1047.2,210.1 C1045.79999,210.1 1044.55001,209.775003 1043.45,209.125 C1042.34999,208.474997 1041.325,207.775004 1040.375,207.025 C1039.425,206.274996 1038.5,205.575003 1037.6,204.925 C1036.7,204.274997 1035.75,203.95 1034.75,203.95 C1032.04999,203.95 1029.77501,205.049989 1027.925,207.25 C1026.07499,209.450011 1024.57501,212.249983 1023.425,215.65 C1022.27499,219.050017 1021.425,222.74998 1020.875,226.75 C1020.325,230.75002 1020.05,234.599982 1020.05,238.3 C1020.05,241.400015 1020.175,243.92499 1020.425,245.875 C1020.675,247.82501 1021.05,249.374994 1021.55,250.525 C1022.05,251.675006 1022.725,252.449998 1023.575,252.85 C1024.425,253.250002 1025.44999,253.45 1026.65,253.45 C1027.95001,253.45 1029.34999,253.250002 1030.85,252.85 C1031.15,252.75 1031.375,252.949997 1031.525,253.45 C1031.675,253.950003 1031.75,254.349998 1031.75,254.65 C1031.75,254.850001 1031.6,255.074999 1031.3,255.325 C1031,255.575001 1030.8,255.7 1030.7,255.7 C1028.49999,256.600005 1026.25001,257.574995 1023.95,258.625 C1021.64999,259.675005 1019.75001,260.549997 1018.25,261.25 C1016.84999,261.850003 1015.17501,262.499997 1013.225,263.2 C1011.27499,263.900004 1009.60001,264.25 1008.2,264.25 C1006.59999,264.25 1005.27501,264.000002 1004.225,263.5 C1003.17499,262.999998 1002.65,262.500002 1002.65,262 C1002.65,261.499998 1002.775,261.050002 1003.025,260.65 C1003.275,260.249998 1003.5,259.500005 1003.7,258.4 C1003.9,256.899992 1004.125,255.12501 1004.375,253.075 C1004.625,251.02499 1004.875,248.800012 1005.125,246.4 C1005.375,243.999988 1005.575,241.525013 1005.725,238.975 C1005.875,236.424987 1005.95,233.900013 1005.95,231.4 C1005.95,225.799972 1005.775,221.05002 1005.425,217.15 C1005.075,213.249981 1004.45,210.100012 1003.55,207.7 C1002.65,205.299988 1001.42501,203.575005 999.875,202.525 C998.324992,201.474995 996.350012,200.95 993.95,200.95 L992.6,200.95 C992.199998,200.95 991.800002,201 991.4,201.1 C990.799997,201.1 990.5,200.800003 990.5,200.2 C990.5,199.599997 990.799997,199.150002 991.4,198.85 C992.500006,198.149996 994.199989,197.125007 996.5,195.775 C998.800011,194.424993 1001.17499,193.125006 1003.625,191.875 C1006.07501,190.624994 1008.44999,189.500005 1010.75,188.5 C1013.05001,187.499995 1014.74999,187 1015.85,187 C1017.15001,187 1018.25,187.424996 1019.15,188.275 C1020.05,189.125004 1020.725,190.199994 1021.175,191.5 C1021.625,192.800006 1021.95,194.274992 1022.15,195.925 C1022.35,197.575008 1022.45,199.199992 1022.45,200.8 C1022.45,202.000006 1022.425,203.249994 1022.375,204.55 C1022.325,205.850007 1022.3,207.249993 1022.3,208.75 C1026.80002,202.149967 1030.84998,197.025018 1034.45,193.375 C1038.05002,189.724982 1041.44998,187.9 1044.65,187.9 C1045.85001,187.9 1047.02499,188.399995 1048.175,189.4 C1049.32501,190.400005 1050.54999,191.524994 1051.85,192.775 C1053.15001,194.025006 1054.49999,195.149995 1055.9,196.15 C1057.30001,197.150005 1058.74999,197.65 1060.25,197.65 C1061.55001,197.65 1062.5,197.500001 1063.1,197.2 L1064.6,196.45 C1065.4,196.45 1065.8,196.999995 1065.8,198.1 L1065.8,198.25 Z M1112.3,238.6 C1112,236.899991 1111.7,235.05001 1111.4,233.05 C1111.1,231.04999 1110.8,229.150009 1110.5,227.35 C1110.2,225.549991 1109.925,224.000007 1109.675,222.7 C1109.425,221.399993 1109.25,220.550002 1109.15,220.15 C1107.54999,220.750003 1105.75001,221.449996 1103.75,222.25 C1101.74999,223.050004 1099.75001,223.924995 1097.75,224.875 C1095.74999,225.825005 1093.85001,226.774995 1092.05,227.725 C1090.24999,228.675005 1088.75001,229.549996 1087.55,230.35 C1085.24999,231.850008 1083.50001,233.349992 1082.3,234.85 C1081.09999,236.350008 1080.5,238.14999 1080.5,240.25 C1080.5,243.150014 1081.34999,245.699989 1083.05,247.9 C1084.75001,250.100011 1087.39998,251.2 1091,251.2 C1092.90001,251.2 1094.87499,250.850004 1096.925,250.15 C1098.97501,249.449996 1100.87499,248.650004 1102.625,247.75 C1104.37501,246.849996 1105.89999,245.950005 1107.2,245.05 C1108.50001,244.149995 1109.4,243.450003 1109.9,242.95 C1110.7,242.149996 1111.325,241.475003 1111.775,240.925 C1112.225,240.374997 1112.4,239.600005 1112.3,238.6 Z M1107.95,215.35 C1107.35,212.249984 1106.65,209.475012 1105.85,207.025 C1105.05,204.574988 1104.05001,202.525008 1102.85,200.875 C1101.64999,199.224992 1100.20001,197.975004 1098.5,197.125 C1096.79999,196.274996 1094.70001,195.85 1092.2,195.85 C1089.99999,195.85 1087.97501,196.249996 1086.125,197.05 C1084.27499,197.850004 1082.67501,198.799994 1081.325,199.9 C1079.97499,201.000006 1078.925,202.099995 1078.175,203.2 C1077.425,204.300005 1077,205.149997 1076.9,205.75 C1076.8,206.550004 1076.35,206.95 1075.55,206.95 C1074.14999,206.95 1072.85001,206.450005 1071.65,205.45 C1070.44999,204.449995 1069.85,203.250007 1069.85,201.85 C1069.85,201.049996 1069.95,200.450002 1070.15,200.05 C1072.45001,198.749994 1075.24998,197.350008 1078.55,195.85 C1081.85002,194.349993 1085.27498,192.950007 1088.825,191.65 C1092.37502,190.349994 1095.89998,189.275004 1099.4,188.425 C1102.90002,187.574996 1106.04999,187.15 1108.85,187.15 C1113.05002,187.15 1116.27499,187.749994 1118.525,188.95 C1120.77501,190.150006 1122.44999,191.849989 1123.55,194.05 C1124.65001,196.250011 1125.325,198.824985 1125.575,201.775 C1125.825,204.725015 1126.05,207.899983 1126.25,211.3 C1126.55,216.400025 1126.95,221.324976 1127.45,226.075 C1127.95,230.825024 1128.69999,235.024982 1129.7,238.675 C1130.7,242.325018 1131.97499,245.274989 1133.525,247.525 C1135.07501,249.775011 1136.99999,250.9 1139.3,250.9 C1140.40001,250.9 1141.59999,250.700002 1142.9,250.3 C1144.20001,249.899998 1145.44999,249.425003 1146.65,248.875 C1147.85001,248.324997 1148.925,247.775003 1149.875,247.225 C1150.825,246.674997 1151.45,246.300001 1151.75,246.1 C1152.65,246.1 1153.2,246.549995 1153.4,247.45 C1153.4,247.950003 1153.3,248.399998 1153.1,248.8 C1152.9,249.000001 1152.15001,249.499996 1150.85,250.3 C1149.54999,251.100004 1147.95001,252.049994 1146.05,253.15 C1144.14999,254.250005 1142.05001,255.424994 1139.75,256.675 C1137.44999,257.925006 1135.17501,259.099994 1132.925,260.2 C1130.67499,261.300005 1128.60001,262.199996 1126.7,262.9 C1124.79999,263.600004 1123.30001,263.95 1122.2,263.95 C1120.89999,263.95 1119.775,263.425005 1118.825,262.375 C1117.875,261.324995 1117.05,259.925009 1116.35,258.175 C1115.65,256.424991 1115.05,254.400012 1114.55,252.1 C1114.05,249.799988 1113.6,247.400013 1113.2,244.9 C1111.39999,246.400008 1109.10001,248.17499 1106.3,250.225 C1103.49999,252.27501 1100.45002,254.199991 1097.15,256 C1093.84998,257.800009 1090.47502,259.324994 1087.025,260.575 C1083.57498,261.825006 1080.25002,262.45 1077.05,262.45 C1074.34999,262.45 1072.00001,262.025004 1070,261.175 C1067.99999,260.324996 1066.32501,259.200007 1064.975,257.8 C1063.62499,256.399993 1062.625,254.775009 1061.975,252.925 C1061.325,251.074991 1061,249.15001 1061,247.15 C1061,243.949984 1061.97499,241.32501 1063.925,239.275 C1065.87501,237.22499 1068.89998,235.100011 1073,232.9 C1074.90001,231.899995 1077.54998,230.575008 1080.95,228.925 C1084.35002,227.274992 1087.82498,225.600009 1091.375,223.9 C1094.92502,222.199992 1098.22498,220.575008 1101.275,219.025 C1104.32502,217.474992 1106.54999,216.250004 1107.95,215.35 Z M1244.9,196.3 C1242.89999,197.800007 1239.57502,199.124994 1234.925,200.275 C1230.27498,201.425006 1224.90003,202 1218.8,202 C1217.59999,202 1216.27501,202.025 1214.825,202.075 C1213.37499,202.125 1212.25,202.15 1211.45,202.15 C1211.85,205.950019 1211.37501,209.84998 1210.025,213.85 C1208.67499,217.85002 1207.12501,221.624982 1205.375,225.175 C1203.62499,228.725018 1202.00001,231.849986 1200.5,234.55 C1198.99999,237.250013 1198.25,239.199994 1198.25,240.4 C1198.25,242.000008 1198.94999,243.549993 1200.35,245.05 C1201.75001,246.550007 1203.49999,248.049993 1205.6,249.55 C1207.70001,251.050007 1209.94999,252.574992 1212.35,254.125 C1214.75001,255.675008 1216.99999,257.324991 1219.1,259.075 C1221.20001,260.825009 1222.94999,262.749989 1224.35,264.85 C1225.75001,266.950011 1226.45,269.249987 1226.45,271.75 C1226.45,275.350018 1225.07501,279.299979 1222.325,283.6 C1219.57499,287.900021 1215.85002,291.924981 1211.15,295.675 C1206.44998,299.425019 1200.95003,302.549987 1194.65,305.05 C1188.34997,307.550012 1181.65004,308.8 1174.55,308.8 C1171.24998,308.8 1167.67502,308.450003 1163.825,307.75 C1159.97498,307.049997 1156.42502,306.000007 1153.175,304.6 C1149.92498,303.199993 1147.22501,301.47501 1145.075,299.425 C1142.92499,297.37499 1141.85,294.950014 1141.85,292.15 C1141.85,290.549992 1143.07499,288.450013 1145.525,285.85 C1147.97501,283.249987 1150.79998,280.600013 1154,277.9 C1157.20002,275.199987 1160.34998,272.600012 1163.45,270.1 C1166.55002,267.599987 1168.74999,265.600008 1170.05,264.1 C1170.35,264.1 1170.725,264.299998 1171.175,264.7 C1171.625,265.100002 1171.85,265.549998 1171.85,266.05 C1171.85,266.150001 1171.825,266.225 1171.775,266.275 C1171.725,266.325 1171.7,266.4 1171.7,266.5 C1170.69999,267.300004 1169.47501,268.299994 1168.025,269.5 C1166.57499,270.700006 1165.15001,271.999993 1163.75,273.4 C1162.34999,274.800007 1161.15,276.324992 1160.15,277.975 C1159.14999,279.625008 1158.65,281.249992 1158.65,282.85 C1158.65,284.95001 1159.47499,287.02499 1161.125,289.075 C1162.77501,291.12501 1164.92499,292.949992 1167.575,294.55 C1170.22501,296.150008 1173.24998,297.449995 1176.65,298.45 C1180.05002,299.450005 1183.49998,299.95 1187,299.95 C1194.20004,299.95 1199.67498,298.375016 1203.425,295.225 C1207.17502,292.074984 1209.05,287.650028 1209.05,281.95 C1209.05,279.549988 1208.37501,277.250011 1207.025,275.05 C1205.67499,272.849989 1204.02501,270.800009 1202.075,268.9 C1200.12499,266.99999 1197.97501,265.225008 1195.625,263.575 C1193.27499,261.924992 1191.12501,260.400007 1189.175,259 C1187.22499,257.599993 1185.57501,256.300006 1184.225,255.1 C1182.87499,253.899994 1182.2,252.800005 1182.2,251.8 C1182.2,250.899995 1182.475,249.875006 1183.025,248.725 C1183.575,247.574994 1184.2,246.425006 1184.9,245.275 C1185.6,244.124994 1186.225,243.075005 1186.775,242.125 C1187.325,241.174995 1187.6,240.450002 1187.6,239.95 C1187.6,240.050001 1187.5,239.900002 1187.3,239.5 C1186.6,240.200004 1185.60001,240.899996 1184.3,241.6 C1182.99999,242.300004 1181.47501,242.949997 1179.725,243.55 C1177.97499,244.150003 1176.12501,244.649998 1174.175,245.05 C1172.22499,245.450002 1170.25001,245.65 1168.25,245.65 C1164.44998,245.65 1161.10001,245.025006 1158.2,243.775 C1155.29999,242.524994 1152.87501,240.85001 1150.925,238.75 C1148.97499,236.64999 1147.5,234.225014 1146.5,231.475 C1145.5,228.724986 1145,225.800016 1145,222.7 C1145,218.099977 1145.67499,214.150016 1147.025,210.85 C1148.37501,207.549983 1150.07499,204.750011 1152.125,202.45 C1154.17501,200.149989 1156.34999,198.275007 1158.65,196.825 C1160.95001,195.374993 1163.04999,194.150005 1164.95,193.15 C1166.15001,192.549997 1167.57499,191.975003 1169.225,191.425 C1170.87501,190.874997 1172.64999,190.375002 1174.55,189.925 C1176.45001,189.474998 1178.39999,189.100001 1180.4,188.8 C1182.40001,188.499999 1184.29999,188.35 1186.1,188.35 C1192.40003,188.35 1197.49998,189.049993 1201.4,190.45 C1205.30002,191.850007 1207.84999,193.099995 1209.05,194.2 C1210.25001,194.400001 1212.39998,194.55 1215.5,194.65 C1218.60002,194.75 1221.89998,194.8 1225.4,194.8 L1243.55,194.8 C1244.05,194.8 1244.55,194.75 1245.05,194.65 C1245.55,194.75 1245.75,194.999998 1245.65,195.4 C1245.55,195.800002 1245.3,196.099999 1244.9,196.3 Z M1183.1,236.8 C1184.50001,236.8 1185.89999,236.500003 1187.3,235.9 C1188.70001,235.299997 1189.97499,234.275007 1191.125,232.825 C1192.27501,231.374993 1193.225,229.425012 1193.975,226.975 C1194.725,224.524988 1195.1,221.450018 1195.1,217.75 C1195.1,214.349983 1194.725,211.200015 1193.975,208.3 C1193.225,205.399986 1192.10001,202.900011 1190.6,200.8 C1189.09999,198.69999 1187.25001,197.075006 1185.05,195.925 C1182.84999,194.774994 1180.25002,194.2 1177.25,194.2 C1172.94998,194.2 1169.30002,195.824984 1166.3,199.075 C1163.29999,202.325016 1161.8,206.94997 1161.8,212.95 C1161.8,216.250017 1162.39999,219.349986 1163.6,222.25 C1164.80001,225.150014 1166.37499,227.674989 1168.325,229.825 C1170.27501,231.975011 1172.54999,233.674994 1175.15,234.925 C1177.75001,236.175006 1180.39999,236.8 1183.1,236.8 Z M1289.75,250 C1288.64999,250.900004 1287.15001,252.099992 1285.25,253.6 C1283.34999,255.100008 1281.15001,256.599992 1278.65,258.1 C1276.14999,259.600008 1273.40001,260.874995 1270.4,261.925 C1267.39999,262.975005 1264.25002,263.5 1260.95,263.5 C1255.94997,263.5 1251.50002,262.625009 1247.6,260.875 C1243.69998,259.124991 1240.42501,256.775015 1237.775,253.825 C1235.12499,250.874985 1233.12501,247.40002 1231.775,243.4 C1230.42499,239.39998 1229.75,235.150023 1229.75,230.65 C1229.75,225.349974 1230.54999,220.650021 1232.15,216.55 C1233.75001,212.449979 1235.72499,208.875015 1238.075,205.825 C1240.42501,202.774985 1242.94999,200.22501 1245.65,198.175 C1248.35001,196.12499 1250.79999,194.500006 1253,193.3 C1254,192.699997 1255.27499,192.050004 1256.825,191.35 C1258.37501,190.649997 1260.07499,190.000003 1261.925,189.4 C1263.77501,188.799997 1265.77499,188.275002 1267.925,187.825 C1270.07501,187.374998 1272.29999,187.15 1274.6,187.15 C1278.90002,187.15 1283.07498,187.699995 1287.125,188.8 C1291.17502,189.900005 1294.74998,191.624988 1297.85,193.975 C1300.95002,196.325012 1303.44999,199.349982 1305.35,203.05 C1307.25001,206.750019 1308.2,211.199974 1308.2,216.4 C1308.2,220.600021 1307.42501,224.549982 1305.875,228.25 C1304.32499,231.950018 1302.50001,235.249986 1300.4,238.15 C1298.29999,241.050015 1296.22501,243.52499 1294.175,245.575 L1289.75,250 Z M1272.8,252.4 C1278.50003,252.4 1282.87498,250.250022 1285.925,245.95 C1288.97502,241.649979 1290.5,235.050045 1290.5,226.15 C1290.5,221.649978 1289.87501,217.475019 1288.625,213.625 C1287.37499,209.774981 1285.62501,206.400014 1283.375,203.5 C1281.12499,200.599986 1278.50002,198.325008 1275.5,196.675 C1272.49998,195.024992 1269.25002,194.2 1265.75,194.2 C1263.24999,194.2 1260.87501,194.849994 1258.625,196.15 C1256.37499,197.450007 1254.40001,199.324988 1252.7,201.775 C1250.99999,204.225012 1249.65,207.199983 1248.65,210.7 C1247.64999,214.200018 1247.15,218.149978 1247.15,222.55 C1247.15,227.250023 1247.87499,231.449981 1249.325,235.15 C1250.77501,238.850019 1252.69999,241.974987 1255.1,244.525 C1257.50001,247.075013 1260.22498,249.024993 1263.275,250.375 C1266.32502,251.725007 1269.49998,252.4 1272.8,252.4 Z M1340.6,222.4 C1340.5,223.300005 1340.4,224.099997 1340.3,224.8 C1340.2,225.500003 1340.125,226.299995 1340.075,227.2 C1340.025,228.100005 1339.975,229.224993 1339.925,230.575 C1339.875,231.925007 1339.85,233.699989 1339.85,235.9 C1339.85,239.500018 1339.975,242.449989 1340.225,244.75 C1340.475,247.050011 1340.85,248.874993 1341.35,250.225 C1341.85,251.575007 1342.475,252.499998 1343.225,253 C1343.975,253.500002 1344.89999,253.75 1346,253.75 C1346.7,253.75 1347.45,253.650001 1348.25,253.45 C1348.45,253.45 1348.625,253.724997 1348.775,254.275 C1348.925,254.825003 1348.9,255.199999 1348.7,255.4 C1348.1,255.900002 1346.92501,256.624995 1345.175,257.575 C1343.42499,258.525005 1341.45001,259.449995 1339.25,260.35 C1337.04999,261.250004 1334.77501,262.049997 1332.425,262.75 C1330.07499,263.450003 1328.10001,263.8 1326.5,263.8 C1325.09999,263.8 1324,263.625002 1323.2,263.275 C1322.4,262.924998 1322,262.500002 1322,262 C1322,261.499998 1322.05,261.2 1322.15,261.1 C1322.25,261 1322.4,260.750002 1322.6,260.35 C1322.8,259.849997 1322.95,259.225004 1323.05,258.475 C1323.15,257.724996 1323.3,256.850005 1323.5,255.85 C1323.7,254.449993 1323.9,252.675011 1324.1,250.525 C1324.3,248.374989 1324.5,246.025013 1324.7,243.475 C1324.9,240.924987 1325.075,238.275014 1325.225,235.525 C1325.375,232.774986 1325.45,230.100013 1325.45,227.5 C1325.45,226.399994 1325.425,225.025008 1325.375,223.375 C1325.325,221.724992 1325.25,219.600013 1325.15,217 C1325.05,214.099986 1324.725,211.62501 1324.175,209.575 C1323.625,207.52499 1322.925,205.875006 1322.075,204.625 C1321.225,203.374994 1320.27501,202.450003 1319.225,201.85 C1318.17499,201.249997 1317.15,200.95 1316.15,200.95 L1314.65,200.95 C1314.15,200.95 1313.65,201 1313.15,201.1 C1312.75,201.1 1312.55,200.650004 1312.55,199.75 C1312.55,199.549999 1312.625,199.375001 1312.775,199.225 C1312.925,199.074999 1313.4,198.750002 1314.2,198.25 C1315.50001,197.349996 1317.24999,196.250007 1319.45,194.95 C1321.65001,193.649993 1323.89999,192.450006 1326.2,191.35 C1328.50001,190.249995 1330.67499,189.300004 1332.725,188.5 C1334.77501,187.699996 1336.34999,187.3 1337.45,187.3 C1340.35001,187.3 1341.8,188.949984 1341.8,192.25 C1341.8,192.750002 1341.75,193.649993 1341.65,194.95 C1341.55,196.250007 1341.475,197.574993 1341.425,198.925 C1341.375,200.275007 1341.3,201.549994 1341.2,202.75 C1341.1,203.950006 1341.05,204.749998 1341.05,205.15 C1343.15001,203.14999 1345.39999,201.10001 1347.8,199 C1350.20001,196.89999 1352.79999,194.975009 1355.6,193.225 C1358.40001,191.474991 1361.34998,190.050005 1364.45,188.95 C1367.55002,187.849995 1370.74998,187.3 1374.05,187.3 C1380.05003,187.3 1384.97498,189.024983 1388.825,192.475 C1392.67502,195.925017 1394.6,201.399963 1394.6,208.9 C1394.6,210.90001 1394.475,213.249987 1394.225,215.95 C1393.975,218.650014 1393.7,221.449985 1393.4,224.35 C1393.1,227.250014 1392.825,230.099986 1392.575,232.9 C1392.325,235.700014 1392.2,238.199989 1392.2,240.4 C1392.2,248.40004 1394.79997,252.4 1400,252.4 C1401,252.4 1402.12499,252.225002 1403.375,251.875 C1404.62501,251.524998 1405.82499,251.125002 1406.975,250.675 C1408.12501,250.224998 1409.15,249.775002 1410.05,249.325 C1410.95,248.874998 1411.55,248.500001 1411.85,248.2 C1411.95,248.099999 1412.075,248.174999 1412.225,248.425 C1412.375,248.675001 1412.5,248.999998 1412.6,249.4 C1412.7,249.800002 1412.725,250.149998 1412.675,250.45 C1412.625,250.750001 1412.55,250.949999 1412.45,251.05 C1411.65,251.550003 1409.92501,252.499993 1407.275,253.9 C1404.62499,255.300007 1401.67502,256.724993 1398.425,258.175 C1395.17498,259.625007 1391.95002,260.924994 1388.75,262.075 C1385.54998,263.225006 1383.00001,263.8 1381.1,263.8 C1378.79999,263.8 1377.225,263.250005 1376.375,262.15 C1375.525,261.049995 1375.1,259.900006 1375.1,258.7 C1375.1,257.899996 1375.225,256.900006 1375.475,255.7 C1375.725,254.499994 1376.05,252.550014 1376.45,249.85 C1376.85,246.949985 1377.225,243.55002 1377.575,239.65 C1377.925,235.74998 1378.1,231.550023 1378.1,227.05 C1378.1,218.249956 1376.47502,211.575023 1373.225,207.025 C1369.97498,202.474977 1365.90002,200.2 1361,200.2 C1357.89998,200.2 1355.15001,200.799994 1352.75,202 C1350.34999,203.200006 1348.30001,204.82499 1346.6,206.875 C1344.89999,208.92501 1343.55001,211.274987 1342.55,213.925 C1341.54999,216.575013 1340.9,219.399985 1340.6,222.4 Z M1407.35,154.15 C1407.35,151.949989 1407.87499,150.650002 1408.925,150.25 C1409.97501,149.849998 1411.09999,149.65 1412.3,149.65 L1421.525,149.65 C1424.27501,149.65 1426.77499,149.625 1429.025,149.575 C1431.27501,149.525 1433.37499,149.375001 1435.325,149.125 C1437.27501,148.874999 1439.09999,148.450003 1440.8,147.85 C1441.6,147.549999 1442.025,147.699997 1442.075,148.3 C1442.125,148.900003 1442.15,149.449997 1442.15,149.95 C1442.15,150.550003 1441.85,151.024998 1441.25,151.375 C1440.65,151.725002 1439.975,151.999999 1439.225,152.2 C1438.475,152.400001 1437.75,152.55 1437.05,152.65 C1436.35,152.75 1435.9,152.8 1435.7,152.8 C1435.4,153.800005 1435.05,156.074982 1434.65,159.625 C1434.25,163.175018 1433.825,167.374976 1433.375,172.225 C1432.925,177.075024 1432.55,182.224973 1432.25,187.675 C1431.95,193.125027 1431.8,198.249976 1431.8,203.05 C1432.7,202.049995 1434.19999,200.650009 1436.3,198.85 C1438.40001,197.049991 1440.87499,195.275009 1443.725,193.525 C1446.57501,191.774991 1449.74998,190.250007 1453.25,188.95 C1456.75002,187.649993 1460.39998,187 1464.2,187 C1468.00002,187 1471.52498,187.599994 1474.775,188.8 C1478.02502,190.000006 1480.84999,191.749989 1483.25,194.05 C1485.65001,196.350011 1487.52499,199.174983 1488.875,202.525 C1490.22501,205.875017 1490.9,209.649979 1490.9,213.85 C1490.9,217.350018 1490.22501,220.974981 1488.875,224.725 C1487.52499,228.475019 1485.67501,232.174982 1483.325,235.825 C1480.97499,239.475018 1478.15002,242.949984 1474.85,246.25 C1471.54998,249.550016 1467.97502,252.449988 1464.125,254.95 C1460.27498,257.450013 1456.17502,259.449993 1451.825,260.95 C1447.47498,262.450007 1443.10002,263.2 1438.7,263.2 C1433.69997,263.2 1429.60002,262.650006 1426.4,261.55 C1423.19998,260.449995 1420.65001,259.200007 1418.75,257.8 C1416.84999,256.399993 1415.5,255.075006 1414.7,253.825 C1413.9,252.574994 1413.45,251.800002 1413.35,251.5 C1413.65,250.599996 1414,248.17502 1414.4,244.225 C1414.8,240.27498 1415.175,235.425029 1415.525,229.675 C1415.875,223.924971 1416.2,217.600034 1416.5,210.7 C1416.8,203.799965 1416.95,197.050033 1416.95,190.45 C1416.95,184.649971 1416.85,179.77502 1416.65,175.825 C1416.45,171.87498 1416.175,168.625013 1415.825,166.075 C1415.475,163.524987 1415.05,161.525007 1414.55,160.075 C1414.05,158.624993 1413.5,157.500004 1412.9,156.7 C1411.69999,155.199992 1410.40001,154.4 1409,154.3 L1407.35,154.15 Z M1431.5,214.9 C1431.3,216.600009 1431.15,218.649988 1431.05,221.05 C1430.95,223.450012 1430.9,225.849988 1430.9,228.25 C1430.9,230.650012 1430.95,232.799991 1431.05,234.7 C1431.15,236.600009 1431.25,237.799997 1431.35,238.3 C1431.65,239.800007 1432.34999,241.399991 1433.45,243.1 C1434.55001,244.800008 1435.99999,246.374993 1437.8,247.825 C1439.60001,249.275007 1441.67499,250.474995 1444.025,251.425 C1446.37501,252.375005 1448.94999,252.85 1451.75,252.85 C1458.05003,252.85 1463.27498,250.650022 1467.425,246.25 C1471.57502,241.849978 1473.65,235.100046 1473.65,226 C1473.65,220.899974 1472.92501,216.575018 1471.475,213.025 C1470.02499,209.474982 1468.20001,206.625011 1466,204.475 C1463.79999,202.324989 1461.42501,200.750005 1458.875,199.75 C1456.32499,198.749995 1454.00001,198.25 1451.9,198.25 C1448.99999,198.25 1446.57501,198.674996 1444.625,199.525 C1442.67499,200.375004 1440.95001,201.349995 1439.45,202.45 C1436.94999,204.350009 1435.10001,206.249991 1433.9,208.15 C1432.69999,210.050009 1431.9,212.299987 1431.5,214.9 Z M1558.85,250 C1557.74999,250.900004 1556.25001,252.099992 1554.35,253.6 C1552.44999,255.100008 1550.25001,256.599992 1547.75,258.1 C1545.24999,259.600008 1542.50002,260.874995 1539.5,261.925 C1536.49998,262.975005 1533.35002,263.5 1530.05,263.5 C1525.04997,263.5 1520.60002,262.625009 1516.7,260.875 C1512.79998,259.124991 1509.52501,256.775015 1506.875,253.825 C1504.22499,250.874985 1502.22501,247.40002 1500.875,243.4 C1499.52499,239.39998 1498.85,235.150023 1498.85,230.65 C1498.85,225.349974 1499.64999,220.650021 1501.25,216.55 C1502.85001,212.449979 1504.82499,208.875015 1507.175,205.825 C1509.52501,202.774985 1512.04999,200.22501 1514.75,198.175 C1517.45001,196.12499 1519.89999,194.500006 1522.1,193.3 C1523.10001,192.699997 1524.37499,192.050004 1525.925,191.35 C1527.47501,190.649997 1529.17499,190.000003 1531.025,189.4 C1532.87501,188.799997 1534.87499,188.275002 1537.025,187.825 C1539.17501,187.374998 1541.39999,187.15 1543.7,187.15 C1548.00002,187.15 1552.17498,187.699995 1556.225,188.8 C1560.27502,189.900005 1563.84998,191.624988 1566.95,193.975 C1570.05002,196.325012 1572.54999,199.349982 1574.45,203.05 C1576.35001,206.750019 1577.3,211.199974 1577.3,216.4 C1577.3,220.600021 1576.52501,224.549982 1574.975,228.25 C1573.42499,231.950018 1571.60001,235.249986 1569.5,238.15 C1567.39999,241.050015 1565.32501,243.52499 1563.275,245.575 L1558.85,250 Z M1541.9,252.4 C1547.60003,252.4 1551.97498,250.250022 1555.025,245.95 C1558.07502,241.649979 1559.6,235.050045 1559.6,226.15 C1559.6,221.649978 1558.97501,217.475019 1557.725,213.625 C1556.47499,209.774981 1554.72501,206.400014 1552.475,203.5 C1550.22499,200.599986 1547.60001,198.325008 1544.6,196.675 C1541.59999,195.024992 1538.35002,194.2 1534.85,194.2 C1532.34999,194.2 1529.97501,194.849994 1527.725,196.15 C1525.47499,197.450007 1523.50001,199.324988 1521.8,201.775 C1520.09999,204.225012 1518.75,207.199983 1517.75,210.7 C1516.75,214.200018 1516.25,218.149978 1516.25,222.55 C1516.25,227.250023 1516.97499,231.449981 1518.425,235.15 C1519.87501,238.850019 1521.79999,241.974987 1524.2,244.525 C1526.60001,247.075013 1529.32498,249.024993 1532.375,250.375 C1535.42502,251.725007 1538.59998,252.4 1541.9,252.4 Z M1645.1,250 C1643.99999,250.900004 1642.50001,252.099992 1640.6,253.6 C1638.69999,255.100008 1636.50001,256.599992 1634,258.1 C1631.49999,259.600008 1628.75002,260.874995 1625.75,261.925 C1622.74998,262.975005 1619.60002,263.5 1616.3,263.5 C1611.29997,263.5 1606.85002,262.625009 1602.95,260.875 C1599.04998,259.124991 1595.77501,256.775015 1593.125,253.825 C1590.47499,250.874985 1588.47501,247.40002 1587.125,243.4 C1585.77499,239.39998 1585.1,235.150023 1585.1,230.65 C1585.1,225.349974 1585.89999,220.650021 1587.5,216.55 C1589.10001,212.449979 1591.07499,208.875015 1593.425,205.825 C1595.77501,202.774985 1598.29999,200.22501 1601,198.175 C1603.70001,196.12499 1606.14999,194.500006 1608.35,193.3 C1609.35001,192.699997 1610.62499,192.050004 1612.175,191.35 C1613.72501,190.649997 1615.42499,190.000003 1617.275,189.4 C1619.12501,188.799997 1621.12499,188.275002 1623.275,187.825 C1625.42501,187.374998 1627.64999,187.15 1629.95,187.15 C1634.25002,187.15 1638.42498,187.699995 1642.475,188.8 C1646.52502,189.900005 1650.09998,191.624988 1653.2,193.975 C1656.30002,196.325012 1658.79999,199.349982 1660.7,203.05 C1662.60001,206.750019 1663.55,211.199974 1663.55,216.4 C1663.55,220.600021 1662.77501,224.549982 1661.225,228.25 C1659.67499,231.950018 1657.85001,235.249986 1655.75,238.15 C1653.64999,241.050015 1651.57501,243.52499 1649.525,245.575 L1645.1,250 Z M1628.15,252.4 C1633.85003,252.4 1638.22498,250.250022 1641.275,245.95 C1644.32502,241.649979 1645.85,235.050045 1645.85,226.15 C1645.85,221.649978 1645.22501,217.475019 1643.975,213.625 C1642.72499,209.774981 1640.97501,206.400014 1638.725,203.5 C1636.47499,200.599986 1633.85001,198.325008 1630.85,196.675 C1627.84999,195.024992 1624.60002,194.2 1621.1,194.2 C1618.59999,194.2 1616.22501,194.849994 1613.975,196.15 C1611.72499,197.450007 1609.75001,199.324988 1608.05,201.775 C1606.34999,204.225012 1605,207.199983 1604,210.7 C1603,214.200018 1602.5,218.149978 1602.5,222.55 C1602.5,227.250023 1603.22499,231.449981 1604.675,235.15 C1606.12501,238.850019 1608.04999,241.974987 1610.45,244.525 C1612.85001,247.075013 1615.57498,249.024993 1618.625,250.375 C1621.67502,251.725007 1624.84998,252.4 1628.15,252.4 Z M1692.05,227.35 C1692.05,229.35001 1692,231.849985 1691.9,234.85 C1691.8,237.850015 1691.75,240.949984 1691.75,244.15 C1691.75,247.750018 1692.29999,250.324992 1693.4,251.875 C1694.50001,253.425008 1695.94999,254.2 1697.75,254.2 C1697.85,254.2 1698.1,254.150001 1698.5,254.05 C1698.9,253.949999 1699.325,253.875 1699.775,253.825 C1700.225,253.775 1700.65,253.7 1701.05,253.6 C1701.45,253.5 1701.7,253.45 1701.8,253.45 C1702,253.45 1702.225,253.624998 1702.475,253.975 C1702.725,254.325002 1702.8,254.599999 1702.7,254.8 C1702.1,255.500003 1700.72501,256.349995 1698.575,257.35 C1696.42499,258.350005 1694.02501,259.324995 1691.375,260.275 C1688.72499,261.225005 1686.17501,262.049997 1683.725,262.75 C1681.27499,263.450003 1679.45001,263.8 1678.25,263.8 C1676.84999,263.8 1675.75,263.400004 1674.95,262.6 C1674.15,261.799996 1673.75,261.200002 1673.75,260.8 C1673.75,260.499999 1673.775,260.300001 1673.825,260.2 L1673.975,259.9 C1674.025,259.8 1674.1,259.625001 1674.2,259.375 C1674.3,259.124999 1674.4,258.700003 1674.5,258.1 C1674.8,256.799994 1675.1,255.12501 1675.4,253.075 C1675.7,251.02499 1675.975,248.475015 1676.225,245.425 C1676.475,242.374985 1676.7,238.675022 1676.9,234.325 C1677.1,229.974978 1677.3,224.80003 1677.5,218.8 C1677.6,214.099977 1677.675,209.475023 1677.725,204.925 C1677.775,200.374977 1677.825,196.10002 1677.875,192.1 C1677.925,188.09998 1677.95,184.425017 1677.95,181.075 L1677.95,172.6 C1677.95,167.799976 1677.7,164.050014 1677.2,161.35 C1676.7,158.649987 1676.15,156.900004 1675.55,156.1 C1674.85,155.099995 1673.87501,154.575 1672.625,154.525 C1671.37499,154.475 1670.5,154.4 1670,154.3 C1669.9,153.399995 1669.95,152.600004 1670.15,151.9 C1670.35,151.299997 1670.65,150.750002 1671.05,150.25 C1671.45,149.749998 1672.19999,149.5 1673.3,149.5 C1675.10001,149.5 1677.19999,149.475 1679.6,149.425 C1682.00001,149.375 1684.49999,149.275001 1687.1,149.125 C1689.70001,148.974999 1692.24999,148.775001 1694.75,148.525 C1697.25001,148.274999 1699.44999,147.950002 1701.35,147.55 C1701.95,147.449999 1702.275,147.624998 1702.325,148.075 C1702.375,148.525002 1702.3,149.299994 1702.1,150.4 C1702,151.000003 1701.725,151.374999 1701.275,151.525 C1700.825,151.675001 1700.325,151.75 1699.775,151.75 C1699.225,151.75 1698.725,151.775 1698.275,151.825 C1697.825,151.875 1697.5,152.099998 1697.3,152.5 C1697.1,153.000002 1696.85,153.649996 1696.55,154.45 C1696.25,155.250004 1696,156.399992 1695.8,157.9 C1695.5,159.90001 1695.2,162.574983 1694.9,165.925 C1694.6,169.275017 1694.325,172.999979 1694.075,177.1 C1693.825,181.20002 1693.575,185.499977 1693.325,190 C1693.075,194.500023 1692.85,198.849979 1692.65,203.05 C1692.45,207.250021 1692.3,211.149982 1692.2,214.75 C1692.1,218.350018 1692.05,221.299989 1692.05,223.6 C1694.95001,223.6 1698.07498,222.900007 1701.425,221.5 C1704.77502,220.099993 1707.87499,218.200012 1710.725,215.8 C1713.57501,213.399988 1715.94999,210.575016 1717.85,207.325 C1719.75001,204.074984 1720.7,200.600019 1720.7,196.9 C1720.7,193.999986 1719.75001,192.55 1717.85,192.55 C1716.24999,192.55 1714.80001,192.774998 1713.5,193.225 C1712.19999,193.675002 1711.3,193.9 1710.8,193.9 C1709.29999,193.9 1708.45,193.500004 1708.25,192.7 C1708.25,192.099997 1708.5,191.425004 1709,190.675 C1709.5,189.924996 1710,189.450001 1710.5,189.25 C1712.60001,189.25 1714.97499,189.150001 1717.625,188.95 C1720.27501,188.749999 1722.94999,188.475002 1725.65,188.125 C1728.35001,187.774998 1730.94999,187.400002 1733.45,187 C1735.95001,186.599998 1738.04999,186.250001 1739.75,185.95 C1740.25,186.150001 1740.5,186.449998 1740.5,186.85 C1740.5,187.750005 1739.67501,189.699985 1738.025,192.7 C1736.37499,195.700015 1734.17501,198.999982 1731.425,202.6 C1728.67499,206.200018 1725.55002,209.699983 1722.05,213.1 C1718.54998,216.500017 1714.95002,219.049992 1711.25,220.75 C1712.35001,221.450004 1713.79999,222.749991 1715.6,224.65 C1717.40001,226.550009 1719.37499,228.749988 1721.525,231.25 C1723.67501,233.750012 1725.94999,236.349986 1728.35,239.05 C1730.75001,241.750013 1733.19999,244.224989 1735.7,246.475 C1738.20001,248.725011 1740.62499,250.574993 1742.975,252.025 C1745.32501,253.475007 1747.54999,254.2 1749.65,254.2 C1751.15001,254.2 1752.325,254.050002 1753.175,253.75 C1754.025,253.449998 1754.9,253.050003 1755.8,252.55 C1756.3,252.850001 1756.55,253.199998 1756.55,253.6 C1756.55,254.400004 1756.175,255.174996 1755.425,255.925 C1754.675,256.675004 1753.00001,257.449996 1750.4,258.25 C1748.69999,258.750002 1746.75001,259.424996 1744.55,260.275 C1742.34999,261.125004 1740.22501,261.924996 1738.175,262.675 C1736.12499,263.425004 1734.32501,264.049998 1732.775,264.55 C1731.22499,265.050003 1730.25,265.25 1729.85,265.15 C1729.05,264.949999 1727.77501,263.975009 1726.025,262.225 C1724.27499,260.474991 1722.27501,258.325013 1720.025,255.775 C1717.77499,253.224987 1715.37501,250.425015 1712.825,247.375 C1710.27499,244.324985 1707.77501,241.450014 1705.325,238.75 C1702.87499,236.049986 1700.60001,233.650011 1698.5,231.55 C1696.39999,229.44999 1694.65001,228.050004 1693.25,227.35 L1692.05,227.35 Z" id="Dragonbook" fill="#FFFFFF" fill-rule="nonzero"></path>
    </g>
</svg>