<svg xmlns="http://www.w3.org/2000/svg" width="1000" height="181" version="1"><path fill="#efefef" fill-rule="nonzero" d="M976 1v1l-2 1-4 2-5 2c-2 1-2 1-1 2l1 2a341 341 0 0 0-1 3c0 1-8 2-9 1-3 0-3 0 0 1l3 2 3 1 2 1-4 1v1h2l1 2 2 2 3 2c2-1 2 1 1 2l1 1 2 1 1 1h-4c-1 0-2 0-1-1s-1-2-3-1l-2-2-3-2v1c1 1-4 0-6-2l-7-2 1 2 1 2v1l3 1 2 2v2l1 1-1 1-4-3c1-1-1-2-3-3l-3 1c0-1 0 0 0 0l4 4 4 2v1c0 1 2 1 9-1 5-1 9 0 10 2l3 1 2 1v2l-2 1c-1-1-2 0-3 1l-1 1c-2 0-2 0-1-1l2-1-3-1h-4a146 146 0 0 0-22-1h-4l1 1a1409 1409 0 0 1 8 2c2 0 4 3 4 4l2 1c3 1 4 3 2 3h-3l-7-4-1 2c0 2 0 2 2 2s6 2 7 4l-7-2-9-3-2-1h-5l2 1 1 1-1 1 3 1 3 3 2 2-1 1-4-1-4-2-2-1h-3l-3 1-2 2c-2 0-1 1 0 1l1 1 1 1 1 1h-4c-2-1-3 0-3 2h-3s-1 0 0 0l-1 1h-1c-2 2-1 2 2 1 2 0 5 1 4 2v1c2 1 2 2 1 2h1l1 1h5c2 1 2 2 1 2l-2 1 3 1 5 4 2 1 2 1 2 1h6l-1-2c1-1 3-1 6 1s4 2 10 2h4l-1 1h-3l-1 1h-3l-4 1-2 1-1 1h1l1 1h-1c-2 0-2 2 0 3 2 0 1 1-1 1l-6-1h-8c-5 0-7 1-4 2l4 2 1 2 1 1-2 1 5 1c3 0 5 0 4 2l1 1 2 1-5-1-3-1c-2 1-3 1-4-1l-3-1-2-2-4-2-3-1v-1l2 1h4l-2-3-1-3 1-2 7 2 3 1v-1l-1-2c1-1 0-1-1-1l-2-1h-6c-5 1-5 1-5 3l-3 2-3 1h-2-8l-2 1 2 1 4 1c5 0 5 0 5 2l-1 2c1 2-7 1-8-1l-1-1c0 1-2 1-4-1h-3v2l-4-2h-1c0-1-3-2-8-2l-3-1c2 0 3-1 1-2l-3-1-2-1-2-1c0-2-2-3-3-3l-3-2-2-1-3-1-1-1 1 1 2 3h-2c-2 0-2 0-1 2 2 2 2 3 0 2l-6-3-6-3v-1l-2-1c-4-1-5-1-4-2l1-1-3-1c-3-2-5-1-5 1l1 2v3l-2-1c-1-2-3-2-2 0v1 3h-1l-3-1v-1l-1-2h-5l-2-1v-1c2 0-4-3-5-3v1l-1 1v-1h-1l-1-1-7 1c-3 0-3 1-3 2l-2 3h-7l-2-1v-1l-1 1 5 3 2 1 1 1 3 5 5 6 3 2-1 2-4-2-4-2-5-3c-4-3-5-3-4 0h-1l-2 1h-3v1l1 2 2 3 1 2-5-1v-1l-1 1c1 2 0 2-1 2h-2c-1-2-3-1-2 0l-3-1-2-3-2-2-2-1-2-1-3-2-3-1-7-4-5-2-5-2-2-2h-5l-3-1-2-1h-7l-1 1 1 1 3 1 3 2h-3l-2-2c-2 0-3-1-5-3-1-1-4-2-4 0 1 0 1 0 0 0l2 2v1h-2l-3-1-2-1-1-1v1l-1 1h-3l-3-3-7-4-7-4-3-2-2-1-6-3c-3-3-5-4-5-2v2l-3 1c-4-1-6 0-5 1s0 2-1 2c-2 0-4-3-5-4l-4 1-2-1-1-1-2-1v-1l-1 2-3-1c-1-2-2-2-2-1l1 2 3 1 1 1 2 2 2 2 2 2 2 1-4-1-2-1-1-1-1-1-1-1h-1l-1-1-3-3-5-4-3-2-3-1h-15l-1-1h-10c-1-1 1-1 3-1l3-1h-2-3l-2-1v-1l-1-1h-2l-2-1-2-2-2-1-3-1-2-1-1 1 1 1-10-4-1-1-2-1h-2l-2-1h-3l-1-1h-4c-1 2-2 2-5 0-1-1-2-2-3-1l-3-1-6-1h-1c2-1-4-3-5-2s-4 0-5-1l-1 1-1 2c-1 0-1 0 0 0v3l-1-1c0 2-1 2-2 2l-3-1-5-1h-6l-3-1c0-1-1-2-2-1 0 1-1 1-1-1v-1l-1 1-2 1h-4l-3-1h-3-20l-7 1 5 1 7-1 2 1h3l11 2 3 1 2 1 1 1h-4c0-1-3-2-8-2h-3c3-1-2-2-6-2h-4l-6-1-6-1h-7c2-1 2-1-1-1-2 0-3 0-2 1h-4l1 1h-9l-19 1-9 1 4 1 3 1-2 1c-2 1-11 0-12-1h-34l-6 1h-4c-6 0-14 0-12 1 2 0 6 1 5 2h-9 2c4 1 3 2-1 2s-4 0-1 1h1l-4 1-13 2v2h3c3 1 3 1-3 1-3 1-4 2 0 2 2 0 5 2 5 3l-1 1-1 1-2 2h-2-1l-6-1-7 1-4-1-4 1c0 1-1 2-2 1l-2-1c-1 0-2 0-1-1h-1-3c-1 0-2 0-1 1l-1 2v3c-1 1 0 3 1 3 2 0 2 1 0 1v2c1 0 1 1-1 2-1 0-1 0 0 0h2c2 1 2 1 1 2l-2 2h-4l-2 1-2 2-2 1c-2 1-1 2 1 1l2 2v3l-1 1v2l1 2h-3c-2 0-2-1 0-1v-1-2h-1l-1 1c0 1-4 3-6 2v2l1 1 2-2 2 2 1 1 3 1 1 1v1c-3 1-4 2-6 1l-1-1v-1c-3-1-3 2-1 5 1 1 1 1-1 1l-1-1h-1c-2 0-4-2-3-2l-4-3-1-1-2-1c-2-1-2 1-2 5l-1 2v-6h-1l-1-2 2-1 2-1-1-1-1-3h-3l-4 1-1 1c0 2-3 3-5 2-3 0-3 1-2 1v2l-1 1 1 2-1 1v-1h-1l-1 1h-1c-2 0-2 0-1 2 1 1 1 1-1 1h-2l-1 1v1c-1 1-1 1 1 1h2l2 1c2 0 3 1 1 2l-3-1c-3 0-3 1-2 1l1 1-6-4v-1-1l2-2 2-1 1 1v-2-1l-1 1h-1l-2 2h-2l-2-1v2l1 2c1 1 1 2-2 3l-2 2v1l-2-2v-1c-1-1-1-2-2-1l-3-1-2 1 2 1 2 1 3 1c2 1 2 2 0 3l-3-1v-2l-2-1-1 1 1 1v1l-3-2c2 0 1-1 0-1l-1-1h-3l-2 1v1h-3l-3-1c-2 0-2 1-1 1l1 1c0 2-1 2-2 1-1 0-4 0-3 1l1 2h5l2 1h1c1 1 0 1-1 1l-1 1c-1 2-2 2-3 1-2-1 0 3 1 4l4 2 2 2 2 4 1 2 6 6 2 4-3-1-2-2-4-4c1-1 0-2-1-2v-1l-1-1-2-2-3-3-3-3v-1l-3-2-2-2-2-1-1-1-5-1-2 1h-1l-3-2-1 2v3c-1 1-4 0-4-1 1 0 0 0 0 0l-1-1 1-1c2 0 3 0 2-2s-1-2-4 0l-2 1-2-1h1v1 1c1 1 0 2-1 3l-2 1-2 2 1-2c0-2-1-2-1-1-1 1-2 1-2-1v-1c-2 1-1-1 0-2v-1l2-1c-2 0-4-2-4-3-1-1-1-2-3-2h-2v-1c-1-1-2 1-2 3s0 3-1 2h-2l-1-1v-2-2h-1l-1-1h-1l2 1-2 1-1 1c2 0 2 5 1 6l-1 2 3-1c1 0 1 0 0 0l2-1 1-1h2l3 1 1 4-2-1c1-2-4-3-6-1v3h1v2c-1 1 0 2 1 2h1l2 4c4 4 4 5-1 3l-3-1-2-1-1-1 1-1h-2l-1 1h-1l-2-1c0-2-1-3-3-3-1 1-3 0-5-1l1-1v-2h-3c-3 1-3 1-5-2l-5-1-3 1h-2c-2 0-2-1 0-2 2 0 2-2 0-2l-1-1 1-1 2-1c1-1-1-2-3-2l-1-2-1-2v-1c1 1 3 0 2-1v-1-4l-1 1-6 7v3l-2-1h-3c-3 0-5-1-5-3l-1 1h-1v-2-2h-4l1-2 1-1c-1 1-2 1-3-1v-1-2c-1 0-1 0 0 0l1-1 1-1v-1l1-1v-1h-1c-2 0-3 0-2-1h-2l-2 2-2 1c-3 0-4-1-2-3l2-2-4-1 1-1 1-1h-4l-1-1 2-1 4-1c3-2 4-2 6 0v2h2c5 0 5-1 4-1l-2-1-2 1v-1-1l-1-1c1-1 0-2-1-2v1c1 0 1 0 0 0h-2-4l-2 1c1 1-4 3-6 2h-5l-1-1c-3 0-3 0-2-1l2-1 1-1h-5c-2-1-2-2 0-2h-1l2 1 1-1-2-1-3-2v-1l-6 1H62l-2-1 3-2 3-1c1-2 7-4 9-4s2 0 2-2l1-1 3-1c1 0 1 0 0 0-1-1 0-2 2-3h1c-3-1-9 1-10 2h3v1l-7 2h-2c1-1 0-1-4-1l-6-1h2l8-2c9-1 11-2 13-4l1-3-2-1v-1l3-1c3 0 3-1 2-2-1-2 0-2 3-2l1-2v-1l-2-1v-1l3-2 2-2v-1l2-1h2v-1l1-1c0-2 0-2-2-1l-5 1c-2 2-2 2-4 1h-2l-1-1-2-1h-1c-1-1-5 0-6 1l-1 1-1 1-3 1c-3 2-5 3-6 2l-2 1c-1-1-1-1 1-1l3-1c-1-1 0-2 2-2l2-1 4-2 3-1v-2l2-3 2-2-1-1c-2-1-3-2-1-3s0-1-3-1l-1-1v-2l-1-1c-1-1-1-1-2 1l-1 1c2 0 2 0 1 1l-2 1-5-2 1-1 1-1-2-1-1-1v-1h-1c-2 0-3 0-1-1v-1l-1-1h-2l-2-1 1-1h2l3-1v-1l2-1 1-1c2 0 1-2-1-1-2 0-2 0 0-1l1-1 2-1c3 0 3-1 3-2s905-2 906-1zM91 4V3h-1l1 1zM74 6h-5l1 1h-1l-2 1-2 1h5l1-1h3V7 6c1 0 1 0 0 0zm0 4l1-1-2 1h-1 2zm5 5c-1-1-1 0-3 1l-2 1h1l3-1 1-1zm7 1l-2-1-1 1 2 1 1-1zm-5 1h0c1 0 1 0 0 0zm-13 2h-1c-1 0-1 0 0 0h1zm18-1l-1-1v1h1zm-6 1h-3l2 1 1-1zm24 13h-2s0 2 1 1h1v-1zm-16 4c0-1-2-2-4-1l-1 1h5zm11-2v-1l-2 1c-1 0-1 0 0 0h2zm8 2h-1l2 1-1-1zm-10 6l-1-1v1h1zm1 4h-3c-4 0-5 0-3 1 1 1 5 0 6-1zm6 0l-1-1-1 1h2zm6-1v-1l-1 1h1zm-21 7h-2l1 1 1-1zm2 5h-2c-2 0-2 1-1 1l3-1zm-4 1l-1 1v1l1-1v-1zM942 4l1 3h4V6h-2c0-1 0-1 0 0l-1-1c0-1-1-2-2-1zM465 37h-1l-2 1 3-1zm-9 3h-2 2zm-35 3h-1s-1 0 0 0h1zM961 6h-1s-1 0 0 0h1zM349 51h-1 1zm176-10h-4 4zm31-2l-1-1-1 1h2zm406-28h-1-1l1 1 1-1zM536 41l-1-1v1h1zM76 75l-1-1c-4 1-6 2-5 3h4c3-1 3-1 2-2zm856-57h-4l2 3 3-1-1-2zM69 78l-2-1-1 1 1 1 2-1zm262-17h-2l-2 1c-1 1 1 2 3 1l5-1 3-1h-7zm611-41h-3c-5 0-4 1 2 2h3l-2-1v-1zM315 66h-1-1 2zM95 82c1 0 1 0 0 0l-2 1 2-1zm43-2c-1 1 0 2 1 1v-1h-1zm-20 2v2l1-1-1-1zm811-54h-1c-1 0-1 1 0 0h1zM142 83l-2 1-2 1v1h2l2-1-1-1v-1h1zm805-54l-1-1-1 1h2zm-4 0l-2 1-1 1-1-1 1 1h2v-1l1-1c0 1 0 1 0 0zM295 76l-1-2c-1 0-2 1-1 2 0 2 2 1 2 0zm641-45l-2-1-1 1-1 1h-7c-1 1-1 2 1 2l2 1h1l8 3h1l1 1h5l3-1c0-2-1-3-2-3l-4-1v-1h-2l-3-2zM304 75l-2-1 2 2v-1zM102 90v-1l-1 1h1zm512-35c-2-1-3-1-1 1h2l-1-1zM297 77v1l-1 1h1l1-1-1-1zm632-41s-1 0 0 0h0zM111 92l-1 1 2-1h-1zm6 0l-1 1c0 1 2 2 3 1 2-1 2-2 1-2h-3zm0 1v-1l1 1h-1zm8-1l-1-1-1 1c-1 0-1 0 0 0h2zm3-1c1 0 1 0 0 0l-2 1 2-1zm504-32c0-1-1-2-2-1v1h2zM150 92c0-2-2-2-2 0 0 1-1 2-4 2s-5 2-1 2h1l1 1 2-1 1-1 1-1v-1l1-1zm154-11h-1l1 1v-1zm-28 4l-1-1h-1l-1 1 1 1 2-1zm636-45h-1l1 1v-1zM136 94l-2 1-1 1-3 1c-3 1-3 3 0 2l3-1h1l-1 1c-2 1-1 2 1 2s3-1 1-1v-1l1-1v-2-2zm27-2l-2 1h2v-1zm-43 4h-2c-1 1 0 1 1 1l1-1zm157-9l-1-1v1l1 1v-1zm12-2c1 0 1 0 0 0h-1 1zm8 1v-1h-1c-1 1 0 2 1 1zM125 98l-2-1 1 1h1zm33-3h-1v1l1-1zm-39 6c2-1 2-1 1-2h-2l-2 1c-1 0-1 0 0 0l3 1zm29-5l-1 1-2 1v1c1 1 3 0 3-1v-2zm119-7v-1l-1 1h1zm4 0h-2l1 1 1-1zm-114 9s0-1 0 0h-1 1zm7 0l-1-1-3 2-1 1v2 5c-1 0-1 1 0 0l2 1v-3h2v-2l1-2v-3zm-2 3v-1l1 1h-1zm131-12h-3l1 1c2 2 5 2 5 1s-1-2-3-2zm-148 11h-2l1 2h2v-1l-1-1zm29-2c-1-1-2 0-2 1l1 3v-1l1-2v-1zm-32 3h-1 1zm71-5h1v1h-1 2l2-1h-4zm30-2h-1-1v1l2-1zm-111 9l-1-1c-3 0-4 1-4 2v1l1 2 1 1h-8l-2 2 2 1h5c2 0 2 0 1 1-1 2 0 2 2 0l2-2v-6l1-1zm144-10h-1 1c1 0 0 0 0 0zm5 0h-3l2 1 1-1zm-140 12v-2l-1 2 1 1v-1zm79-7h-1l1 2 1 1 1-3h-2zm25-1h-2l2 1v-1zm21-2h-1l-2 1 3-1zm662-45h-3c-1 1-1 2 1 2l2-1v-1zm-784 54h-1c-1 0-1 0 0 0v1 1l1-1v-1zm99-5l-1-1v1h1zm23-1v-1c0-1 0-1 0 0v1zm-55 3h-4v1h3s0-1 0 0l1-1zm-64 6l-1-1v1h1zm28-2l-1-1v1h1s1 0 0 0zm-27 3h-2l-2 1c-1 1 0 2 2 1 2 0 2 0 1 1l2 1c3-1 3 0 0 2-2 1-2 2-1 3l1 2c0 1 1 2 3 1v1c-1 2 0 3 3 4l5 2 2 2-1-2v-2-1l-1-1v-1l1-1c0-2-1-2-2-1l-1 1-1-1-1-1 1-1v-1c-1 0-1 0 0 0v-2-3l-2-1-3-1-1-1-3-1zm6 8h2c1 0 1 0 0 0l-1 1s0 1 0 0l-1-1zm60-11l1-1-1 1c0 1 0 1 0 0zm10-1h-2c-2-1-2 0-2 1 1 1 0 1-1 1-1-1-2 0-3 1l-1 2v2l5 2 1-4h-1l-2-1v-1c-1 0-1 0 0 0h4l1 1 1-1v-2-1zm-5 6h1l-1 1v-1zm39-7h-3l1 1 2-1zm-50 4l-1 2h2l-1-2zm-30 4h-2-1l1 1 2-1zm12-1h-3l-3 1h2l1 1c1 1 1 0 2-1l1-1zm40-2v1-1zm486-31h-1l2 2-1-2zm-512 35l-2 1c-1 1 0 1 1 2l2-1h-1v-2zm-22 3l-1-1 1 2c1 0 1 0 0 0v-1zm524-35l-1-1 4 4h1l-1-2c1 1 1 1 0 0l-3-1zm22-2l-1-1 2 3h2l-2-1-1-1zm-515 36l-1-1h-1l1 1h1zm30-3l-1 2 1 1 1-1 1-2h-2zm-56 5h-1v1l1-1zm29-1h-1l-2 1h1l2-1zm-9 1c-2 0-2 1-1 1v1l1 1 1-3h-1zm512-34l-1-1 1 1h0zm5 0v1h3l-1-1h-2zm-521 37l-4-1h-3l2 1h3l1 1h3l-2-1zm-16 2h-2 2zm722-48h-3l3 3v-3zm-697 49l-3-1c-1 0-1 1 2 2l1-1zm8 1h-2l1 1 1-1zm693-43h-1l1 1v-1zm-4 1c-2-1-2-1-2 1s1 2 2 0v-1zM781 91l-2-1 1 1 2 2-1-2zm112-5h-2s-1 0 0 0h2zm12 7h-2l2 1v-1zM46 2l-1 1-2 1c-1 1 0 1 1 2h4v4l-1 1-1 1h4l1 1h1l-4 1-2-1-2-1h1l1-1-1-1-1-1-1 1V9l-3-1-4-2h-3l1 1h-3l-7 1v3l1 1-1-1-3-1h-3l2-2 1-1c-1-1 0-1 1-1l7-3 7-1h10zM0 4l1-1c2 0 2 0 1 1H0zm20 10v1l-1-1h1zm27 0l1 1h-1-1l1-1zm9 4l1-1 1 1h-2zm-11 6c-1-1-1-1 1-1l1 1h-2zm21 3h1v1l-1-1zm5 1v1s-1 0 0 0v-1zm0 8l2-2c1 0 2 1 0 2l-1 1-1-1zm-3 1h1s1 0 0 0h-1zm-49 6l4-1c2 0 2 0-1 1l-4 1h-1l2-1zm7-1c1 0 1 0 0 0h-1 1zm61-1h1c0 1 0 2-1 1v-1zm-27 4h1l-2 1 1-1zm-14 2c2 0 2 0 1 1h-3l2-1zm-4 1h1l-1 1-3 2c-2 2-3 3-3 1l2-1 2-2 2-1zm40-1c2 0 3 0 1 1l-2 1 1-2zm-3 3h2c1 0 1 0 0 0h-2zm-47 4h3-3zm46-2h-2 2zm-2 3h1l-1 1v-1zm-8 2c3 0 4 0 2 1h-4l2-1zm-10 2l2 1c1 0 1 0 0 0l-2 2h-2l-5 1-4 2-4 1-1 1v1l-2-1-4 1-3 1-3 1h-4c0-2 10-5 15-6l4-1 6-2 4-2h3zm334-13l2-1v1h-2zM19 72v-1l1 1h-1zM971 7V6c2 0 3 1 3 2 0 2-1 2-2 0l-1-1zM373 52c0-1 0 0 0 0v1l-1-1h1zM52 75l-1 1h-2v1l-3 1h-1l-2 1h-2l6-3 5-1zm313-21v-1l1 1c1 0 0 0 0 0h-1zm86-5l1 1-11 2-1-1h4l3-1c1-1 1-1-1-1h-2 7zm27-1l7 1h1v1l-4 1-3-1c1-1 1-1-2-1l-3 1h1v1l-3-1-3 1h-7l2-1a96 96 0 0 1 14-2zm492-33c-1-2 0-2 5-1 4 2 4 2 3 4v2l-1 1c-3 0-5-1-7-3-3-2-3-3-1-2l1-1zM436 52h0zm53-3l2-1 5 1h-3l-1 1-3-1zm25-2c-1 0 0-1 0 0l1 1-1-1zm6 0h3l-5 1 2-1zm11 1l1-1 4 2-2 1c-3 1-3 0-3-2zm456-31l3-1 2 1h2a894 894 0 0 0-7 0zM52 81h4v2l-3 1-2-1 1-2zm463-31h1-1zm-33 4l1-1 2 1h-3zm58-3c-1-1-1-1 2-1h3l2 1c1 1 1 1-2 1l-5-1zM81 82h1l1 1-2-1zm-3 2h2-2zm411-28h1-1c-1 0 0 0 0 0zm22-1c4 0 6 1 4 2l-7 1h-2l-2-1h-1l1-1 3-1h4zM64 85v3c-1 1-1 1-2-1l1-1 1-1zm11 0l1-1 1 1h-1-1zm443-30l1 1h-3l2-1zM86 88c0 1 0 1 0 0l-1 1c-1 1-1 0-1-1h2zm232-16c4-1 4-1 4 1l-4 1c-2-1-2-1 0-2zm240-16h-1 2l1 1c0 1-1 1-2-1zm22-2l1 1-1 1-1-1 1-1zm375-24h1l2 1 1 1c-1 1-1 1-3-1l-1-1zM87 89h2-2zm894-61h1l2 2h-1l-2-2zM553 57l1 1v1l-1-1v-1zm7 0h4l-2 1v1h-1l-1-2zm-13 1v1h-2l2-1zm48-2l3-1 2 1h5l1 1v1h-4l-4-1h-1l-2-1zM311 76v-1 2-1zm643-44l2 1h-2v-1zM329 76l1-1 1 1-1 1-1-1zm260-17l-2 1h-2l2-1h2zm-25 2h1c1 0 1 0 0 0h-1zM69 97l3-1-1 1c-2 2-2 2-2 0zm341-23l1-1h1l-2 1zm563-39h1l4 1 4 2 1 1 3 2c1 2 2 2 3 1h5l-4 2c-5 0-10 0-9-2l-3-2c-3-1-6-4-5-5zM95 96l3-1 1 1-2 1c-3 1-3 0-2-1zm-21 1v1h-1l1-1zm244-16c1-1 2 0 2 1l-3 1-2-1h1l2-1zm274-16h-2 3l11 1 6 1h6l10 2h2l-5 1-7-1-8-1-4-1-12-2zM310 87l1-1v1c-2 1-1 2 1 2s2 1 1 2h-3l-3 2c-1 1-3 1-3-1h-1c-2 0-1-2 1-3l2-1 2-1h2zm655-41h3c1 1 1 1-1 1-2 1-2 0-2-1zm-5 4h1l-1 1v-1zM660 71h1l1 1h-1l-1-1zm314-21c0-1 3-1 5 1 1 1 2 3 1 4s-7 2-8 1l-2-1-1-1h-4l3-1 6-2v-1zM70 112h0zm37-2c-1-1-1-1 1-1l1 1h-2zm196-14h1v1l-1-1zm654-45l1 1 1 1-2-2zm3 1h0s0-1 0 0zm-26 2c1 0 1 0 0 0h-1 1zM312 98l-1 1v-2c1-1 1-1 1 1zm-4 1l1 1v2l-2-1 1-1v-1zm645-43l2 1c2 0 2 1 1 1l-2-1-1-1zm10 0l1-1 1 1h-1-1zm-2 0h1l-1 1v-1zm-35 3l3 1c1 1 2 2 4 1l4 1v1l-2 1-1 2 1 1c2 2 2 2 0 3h-1c0-1-1-2-2-1l-5-1c-1-2-2-2-2 0l5 2 2 1v1l-1 1h-1l-5-2-2-1-1-1v-2h2l1-1c0-1 0-2 1-1l2-1v-2c-2-1-2-2-2-3zm-823 57h1l-1 1v-1zm561-37l2 1 4 3-3 1-1-1c1-1-1-2-3-3l-2-2 3 1zm-531 37v-1l1 1-1 1v-1zm-60 5h2-2zm869-60h2a70 70 0 0 1 18 8c1 1 1 1-1 1l-3-1c1-1-5-3-7-3h-5l-1-1c2 0 1 0-1-2l-2-2zm-826 58l1-1-1 2-1 1-1-1h1l1-1zm19-2h2c0 1-3 2-4 1v-1h2zm122-7h1l2 1h-3v-1zm-130 10h1l-1 1v-1zm844-57l-1-1 3 1h-2zm-794 55h1c0 1-1 2-2 1l1-1zm800-54h-2v-1l2 1zm-675 47h2l-1 1-1-1zm-188 14l1-1c2 0 2 0 1 1h-2zm165-12l1-1 2 1-1 1-2-1zm-52 5l1-1v1l1 1h-1l-1-1zm34-2c-1-1 0-1 1-1l2 1-3 1v-1zm690-48l1 1-1-1zm-653 45c1 0 2 1 1 2h-2c-2-1-1-1 1-2zm638-42l1-1h1l-1 1h-1zm-683 47h2c2 0 2 2 1 2l-1-1-1-1h-1zm715-49h4l-1 1h-4l1-1zm-840 58v-1l1 1h-1zm7 0h-1v-1l1 1zm147-9c1-2 1-2 3-2 1 1 0 3-1 4 0 1 0 1 0 0l1 1h-1l-2-1v-2zm654-46c1-1 9 1 8 2l1 2c1 1-2 2-4 0l-3-1c-3-2-4-2-2-3zm-637 45c0-2 1-2 2 0s1 2-1 3l-1-3zm-192 13l1-1h2l-1 1h-2zm95-5c1-1 2-1 2 1 0 1-2 2-3 1l1-2zm-54 5l1-1v1h-1c0 1 0 0 0 0zm55-2l1-1v2l-1-1zm100-7h1l-1 1v-1zm-157 12l1-1v1h-1zm792-55l2 1h-1l-1-1zm-783 55c1-2 1-2 1 0l2 2 2 1-2-1-3-1v-1zm55-3l-1 1c-2 0-2 0-1-1 1-2 2-2 2 0zm27-2l-1-1h2c1 0 2 0 1 1h-2zm11-1l1-1-1 1zm565-39l3 1c3 0 4 1 1 1l-6-1 2-1zm124-8h2l-1 1-1-1zm-800 55h1l-1 1v-1zm10 0v-1h1l1 2 1 2-3-3zm690-48h1v1l-1-1zm-648 45l1 1v1l-1-1v-1zm116-8l2 3 2 2v3l-1 1h-1l-1-1-3-4v-1c-2 0-2-2-1-2l3-1zm518-34h2c2 0 2 0 1 1l-3-1zm148-10h0zm-122 9l2 1 4 1 4 1h2l2 1h2l4 1-1 1h1c1 1 2 2 0 2l2 3 2 2h-1-4l-5-2-6-3-2-1-1 1-1 1-3-1-2-2-1-1v-1l2 1 1 1 1 1h1c2-1 0-3-2-3s-3 0-1-2v-2zm-686 48h3l1 1-2 1c-2 0-2-1-3-2h1zm679-46l1 1v1l-2-2h1zm-602 42h2l-1 1-1-1zm-99 8c1 0 0 0 0 0l-1-1 1 1zm584-40l1-1 1 1h-1-1zm-554 39v-1h1l-1 1zm641-44h3l1 2 2 1c0 1-2 1-4-1l-2-2zm-626 43h2l-1 1-1-1zm639-42c-1-1-1-1 1-1l1 1h-2zm18-2h1l1 1-2-1zm-655 47v-1l1 1h1-2zm642-43c-1-1-1-1 0 0h0zm42-3h4-4zm-728 50h1s0 1 0 0h-1zm694-47l1 1 2 1-3-2zm113-7h2c1 0 1 1-1 1l-1-1zm-803 56h1l-1 1v-1zm48-3l2 2c2 0 3 1 3 2l1 2 1 2h-4v1c-2 0-2 0-1-1 1-2 0-4-2-4l-3-1-2-1 2-2h3zm20-1v-2c1 0 2 1 2 4l1 4-1 2-1-3-1-5zm607-40l5 2 2 2 5 2 2 2h1a79 79 0 0 1 13 9h-4l-2-1h-1l-1-1-3-1h-2l-1-1c0-1-4-5-6-5l-2-2-2-2a201 201 0 0 1-8-6l4 2zm11-1h2l1 1-3-1zm-21 1l2 1 1 3-3-4zm-676 47l4 3-1 1-1-1-1-2-1-1zm780-52h1c1 0 0 1 0 0h-1zm-77 6l1 1c2 0 2 1 1 2h-1c-1-1-2-2-1-3zm6-1l1 1c0 1 3 2 4 1s1 0 3 1l4 3 3 2-4-1-4-1-1-1-2-2-4-2v-1zm-636 45v-1l1 1-1 1v-1zm737-48h2l-1 1-1-1zm-35 3h1v1h2v1l-3-2zm-22 2h1l1 2 1 1h-3l-2-1c-1-2-2-2 0-1l1-1h1zm-747 52h2l1 2c-1 1-3 0-3-2zm743-50l2 2h-5v-1l1-1h2zm-59 4h1l3 3 2 1 3 1 2 2 1 1 6 4h-2l-4-2-4-3-9-7h1zm35 5l-3-4 4 3 4 4-5-3zm-719 49v2c-1 1-1 1-1-1l1-1zm735-49l2 1 2-1v2l-1 3h-1l-4-3 2 1 2 1-1-2-1-2zm6 3l1 1 1 1c2 0 4 1 3 2l-5-4zm3 6v-1h1l-1 1zm69-5h4l3 2v1l-7-3zm-42 8h2c1 0 1 0 0 0h-2zm-47 5l1 2h-1l-1-1c-1-1 0-1 1-1zm-2 11l3 1 1 2-4-3zm26 1l3 1h2l3 1h1c1 0 5 1 4 2-1 0-1 0 0 0l1 1 10 6 1 2-6-3-9-4-4-2-4-2-2-2zm12 18h2a235 235 0 0 0 9 6c0 1-8-3-9-5l-2-1zm-3 1h1v1l-1-1zm-24 12l3 1 3 3c-2 0-6-3-6-4z"/></svg>
