<svg xmlns="http://www.w3.org/2000/svg" version="1" viewBox="0 0 963 920"><path fill="rgba(50,50,50,.2)" fill-rule="nonzero" d="M638 811c72-30 109-33 148-36 38-4 78-7 153-37 5 8 10 25 13 44-77 20-116 19-153 17-38-1-78-3-155 18-26 6-46 13-62 20 14-8 32-17 56-26zm8 26c75-19 112-18 151-16 38 1 78 3 157-18l6 49c-77 9-115 2-151-4-38-7-77-13-156-3-31 4-54 8-72 14 16-7 37-14 65-22zm-451-36l-16-32 53 6c39 4 76 7 148 36 23 10 42 19 56 27-16-7-36-14-62-21-78-20-117-19-155-17l-24 1zM64 783zm68 73c-21 0-45-1-75-4l6-49 22 6c14 17 30 33 47 47zm76-35h12c39-2 76-3 151 17 28 7 49 14 65 21-18-6-41-10-72-14-68-9-106-5-139 0l-17-24zm-13 78c-33 10-70 20-141 20l3-46c44 5 75 5 101 3 12 9 24 16 37 23zm45-35a530 530 0 0 1 185 12 520 520 0 0 0-170 7l-11-14a337 337 0 0 1-4-5zm-29-366c33 10 55 12 77 14 31 2 61 5 119 29 80 32 94 42 97 79v268l-1-2-2-6c-4-17-10-46-116-89-74-30-113-33-151-37-19-1-39-3-64-8-3-10-4-19-4-26 1-10 4-16 13-20l27-15-20-24c-21-25-27-48-20-71 5-19 21-37 41-50l23-16-17-21a28 28 0 0 1-2-5zm595 371c37 6 76 13 154 4l3 46c-78-1-115-12-151-23s-74-23-154-23c-27 0-48 2-66 4a524 524 0 0 1 214-8zm30-292v1c1-21-7-48-24-81l41-14 80 236c-73 29-112 32-149 35-38 4-77 7-151 37-106 43-112 72-116 89l-1 4V622c-2-40-41-87-74-121-44-40-80-39-109-25 0 0 42-105-58-70-134 47-82 112-82 112-43 28-85 90-26 159-82 44 57 209 57 209C14 784-16 528 6 416A499 499 0 0 1 268 51c9-5 15-11 25-5 9 4 8 51 6 73l2 1c27 11 76 8 112-1 32-10 73-11 90-11 1 0 2-2 0-3-19-6-49-2-66-2-42 2-84-9-121-45a75 75 0 0 1-22-51c-1-5 5-7 7-3 17 24 61 66 143 62 45-2 85 5 110 10 3-23 9-48 23-73 2-4 8-4 9 1 8 25 29 86 72 116 12 9 23 21 29 34a197 197 0 0 0 88 88c12 7 15 22 6 31-13 14-33 29-58 33-2 0-2-1-2-3 3-5 10-18 11-27 0-1-1-2-2-1-6 3-19 9-40 6-2-1-2-3-1-3 6-3 14-9 17-19 1-1-1-2-1-2-6 3-19 8-37 5-2 0-2-3-1-3 6-3 13-7 15-20-7-3-34-10-61-7-2 1-2 2-1 3l16 12c14 11 23 22 31 32 3 3 7 7 13 10 7 4 15 4 20 2 1 0 3 2 2 3-3 3-8 7-13 9-8 2 7 9 21 9 9 0 19-2 23-3 2 0 3 1 2 2-4 7-15 24-37 28l-5 1c-17 0-32-11-37-27l-1-2s-4-14-17-28-42-30-79-36c-22 7-40 28-41 51 0 13 4 26 9 38 14 35 60 51 92 67 28 13 55 26 84 36 23 8 46 15 66 30a175 175 0 0 1 67 108zM298 127v2c-2 13-29 203 60 212 0-69 41-111 54-124 1-1 0-2-1-2-28 7-25-10-77 48 4-16 10-33 20-47 7-10 15-19 26-26 11-8 24-12 37-16l26-10 13-6 9-5c2-1 1-2 0-2h-8l-11 2c-8 1-15 3-23 3-8 2-17 2-25 3-56 4-86-17-100-32zm337 34v7c0 4 2 10 6 12l17 12c5 4 10-2 7-7l-21-27c-3-5-10-3-9 3z"/></svg>
