<svg xmlns="http://www.w3.org/2000/svg" viewBox="0 0 71 103"><path fill="#BD2624" fill-rule="evenodd" d="M71 43.93v7.86a35.36 35.36 0 0 1-31.43 35.1V95H55.3a3.96 3.96 0 0 1 3.92 3.93 3.96 3.96 0 0 1-3.92 3.93H16a3.96 3.96 0 0 1-3.93-3.93A3.96 3.96 0 0 1 16 95h15.71v-8.1A35.36 35.36 0 0 1 .3 51.79v-7.86A3.96 3.96 0 0 1 4.2 40a3.96 3.96 0 0 1 3.93 3.93v7.86a27.53 27.53 0 0 0 27.5 27.5 27.53 27.53 0 0 0 27.5-27.5v-7.86A3.96 3.96 0 0 1 67.07 40 3.96 3.96 0 0 1 71 43.93zM55.29 20.36v31.43a19.7 19.7 0 0 1-19.65 19.64A19.7 19.7 0 0 1 16 51.79V20.36A19.7 19.7 0 0 1 35.64.7 19.7 19.7 0 0 1 55.3 20.36z"/></svg>
