<svg xmlns="http://www.w3.org/2000/svg" viewBox="0 0 47 88"><path fill="#BD2624" fill-rule="evenodd" d="M15.36 43.71c0 6.14-3.75 12.1-9.52 14.43-.49.25-1.04.3-1.53.3a3.92 3.92 0 0 1-3.93-3.92c0-4.67 7.12-3.38 7.12-10.8 0-7.43-7.12-6.14-7.12-10.8a3.92 3.92 0 0 1 3.93-3.94c.49 0 1.04.06 1.53.3 5.77 2.28 9.52 8.3 9.52 14.43zm15.71 0c0 12.47-7.49 24.07-19.03 28.92A3.97 3.97 0 0 1 6.52 69c0-1.72.98-2.9 2.4-3.63 1.65-.86 3.18-1.6 4.66-2.7a23.44 23.44 0 0 0 9.63-18.97c0-7.48-3.56-14.54-9.63-18.96-1.48-1.1-3.01-1.84-4.67-2.7-1.41-.74-2.4-1.9-2.4-3.63a3.96 3.96 0 0 1 5.53-3.62c11.54 4.85 19.03 16.45 19.03 28.91zm15.72 0a47.17 47.17 0 0 1-28.55 43.34c-.49.19-1.04.3-1.6.3a3.96 3.96 0 0 1-3.92-3.92c0-1.78.92-2.76 2.4-3.62.85-.5 1.83-.8 2.75-1.3a39.34 39.34 0 0 0 5.03-66.48 42.9 42.9 0 0 0-5.03-3.12c-.92-.5-1.9-.8-2.76-1.29-1.47-.86-2.4-1.84-2.4-3.62A3.96 3.96 0 0 1 18.25.38 47.17 47.17 0 0 1 46.8 43.7z"/></svg>
