<svg xmlns="http://www.w3.org/2000/svg" viewBox="0 0 907 680" preserveAspectRatio="none">
  <svg xmlns="http://www.w3.org/2000/svg" preserveAspectRatio="xMinYMin"><rect fill="#BD2624" x="0" y="0" width="907" height="503" /></svg>
  <svg xmlns="http://www.w3.org/2000/svg" viewBox="0 0 907 180" preserveAspectRatio="xMinYMax"><path fill="#BD2624" fill-rule="nonzero" d="M905 2l-4 2-5 2c-2 1-2 1-1 2l1 2-1 3c0 1-8 2-9 1-3 0-3 0 0 1l3 2 3 1 2 1-4 1v1l3 2 2 2 3 2c2-1 2 1 1 2l1 1 2 1 1 1h-4c-1 0-2 0-1-1s-1-2-3-1l-2-2-3-2v1c1 1-4 0-6-2l-7-2 1 2 1 2v1l3 1 2 2v2l1 1-1 1-4-3c1-1-1-2-3-3l-3 1 4 4 4 2v1c0 1 2 1 9-1 5-1 9 0 10 2l3 1v4c-1-1-2 0-3 1l-1 1c-2 0-2 0-1-1l2-1-3-1h-4l-22-1h-4l1 1 8 2c2 0 4 3 4 4l2 1c3 1 4 3 2 3h-3l-7-4-1 2c0 2 0 2 2 2s6 2 7 4l-7-2-9-3-2-1h-5l2 1 1 1-1 1 3 1 3 3 2 2-1 1-4-1-4-2-2-1h-3l-3 1-2 2c-2 0-1 1 0 1l1 1 1 1 1 1h-4c-2-1-3 0-3 2h-3l-1 1c-3 2-2 2 1 1 2 0 5 1 4 2v1c2 1 2 2 1 2l2 1h5c2 1 2 2 1 2l-2 1 3 1 5 4 2 1 2 1 2 1h6l-1-2c1-1 3-1 6 1s4 2 10 2h4l-1 1h-3l-1 1h-3l-4 1-2 1-1 1 2 1c-3 0-3 2-1 3 2 0 1 1-1 1l-6-1h-8c-5 0-7 1-4 2l4 2 1 2 1 1-2 1 5 1c3 0 5 0 4 2l1 1 2 1-5-1-3-1c-2 1-3 1-4-1l-3-1-2-2-4-2-3-1v-1l2 1h4l-2-3-1-3 1-2 7 2 3 1v-1l-1-2c1-1 0-1-1-1l-2-1h-6c-5 1-5 1-5 3l-3 2-3 1h-10l-2 1 2 1 4 1c5 0 5 0 5 2l-1 2c1 2-7 1-8-1l-1-1c0 1-2 1-4-1h-3v2l-4-2c-1-1-4-2-9-2l-3-1c2 0 3-1 1-2l-3-1-2-1-2-1c0-2-2-3-3-3l-3-2-2-1-3-1-1-1 1 1 2 3c-4 0-4 0-3 2 2 2 2 3 0 2l-6-3-6-3v-1l-2-1c-4-1-5-1-4-2l1-1-3-1c-3-2-5-1-5 1l1 2v3l-2-1c-1-1-1-1-2 1v3l-4-1v-1l-1-2h-5l-2-1v-1c2 0-4-3-5-3v1l-1 1v-1l-2-1-7 1c-3 0-3 1-3 2l-2 3h-7l-2-1v-1l-1 1 5 3 2 1 1 1 3 5 5 6 3 2-1 2-4-2-4-2-5-3c-4-3-5-3-4 0l-3 1h-3v1l1 2 2 3 1 2-5-1v-1l-1 1c1 2 0 2-1 2-3-2-5-1-4 0l-3-1-2-3-2-2-2-1-2-1-3-2-3-1-7-4-5-2-5-2-2-2h-5l-3-1-2-1h-7l-1 1 1 1 3 1 3 2h-3l-2-2c-2 0-3-1-5-3-1-1-4-2-4 0l2 2v1l-5-1-2-1-1-1v1l-1 1h-3l-3-3-7-4-7-4-3-2-2-1-6-3c-3-3-5-4-5-2v2l-3 1c-4-1-6 0-5 1s0 2-1 2c-2 0-4-3-5-4l-4 1-2-1-1-1-2-1v-1l-1 2-3-1c-1-2-2-2-2-1l1 2 3 1 1 1 2 2 2 2 2 2 2 1-4-1-2-1-1-1-1-1-1-1-2-1-3-3-5-4-3-2-3-1h-15l-1-1h-10c-1-1 1-1 3-1l3-1h-5l-2-1v-1l-1-1-4-1-2-2-2-1-3-1-2-1-1 1 1 1-10-4-1-1-2-1-4-1h-3l-1-1h-4c-1 2-2 2-5 0-1-1-2-2-3-1l-3-1-6-1c1-1-5-3-6-2s-4 0-5-1l-1 1-1 2v3l-1-1c0 2-1 2-2 2l-3-1-5-1h-6l-3-1c0-1-1-2-2-1 0 1-1 1-1-1v-1l-1 1-2 1h-4l-3-1h-23l-7 1 5 1 7-1 2 1h3l11 2 3 1 2 1 1 1h-4c0-1-3-2-8-2h-3c3-1-2-2-6-2h-4l-6-1-6-1h-7c2-1 2-1-1-1-2 0-3 0-2 1h-4l1 1h-9l-19 1-9 1 4 1 3 1-2 1c-2 1-11 0-12-1h-34l-6 1h-4c-6 0-14 0-12 1 2 0 6 1 5 2h-9c6 1 5 2 1 2s-4 0-1 1l-3 1-13 2v2h3c3 1 3 1-3 1-3 1-4 2 0 2 2 0 5 2 5 3l-1 1-1 1-2 2h-3l-6-1-7 1-4-1-4 1c0 1-1 2-2 1l-2-1c-1 0-2 0-1-1h-4c-1 0-2 0-1 1l-1 2v3c-1 1 0 3 1 3 2 0 2 1 0 1v2c1 0 1 1-1 2 4 1 4 1 3 2l-2 2h-4l-2 1-2 2-2 1c-2 1-1 2 1 1l2 2v3l-1 1v2l1 2h-3c-2 0-2-1 0-1v-3l-2 1c0 1-4 3-6 2v2l1 1 2-2 2 2 1 1 3 1 1 1v1c-3 1-4 2-6 1l-1-1v-1c-3-1-3 2-1 5 1 1 1 1-1 1l-1-1c-3 0-5-2-4-2l-4-3-1-1-2-1c-2-1-2 1-2 5l-1 2v-6l-2-2 2-1 2-1-1-1-1-3h-3l-4 1-1 1c0 2-3 3-5 2-3 0-3 1-2 1v2l-1 1 1 2-1 1v-1l-2 1c-3 0-3 0-2 2 1 1 1 1-1 1l-3 1v1c-1 1-1 1 1 1l4 1c2 0 3 1 1 2l-3-1c-3 0-3 1-2 1l1 1-6-4v-2l2-2 2-1 1 1v-3l-1 1-3 2-4-1v2l1 2c1 1 1 2-2 3l-2 2v1l-2-2v-1c-1-1-1-2-2-1l-3-1-2 1 2 1 2 1 3 1c2 1 2 2 0 3l-3-1v-2l-2-1-1 1 1 1v1l-3-2c2 0 1-1 0-1l-1-1h-3l-2 1v1h-3l-3-1c-2 0-2 1-1 1l1 1c0 2-1 2-2 1-1 0-4 0-3 1l1 2h5l2 1c2 1 1 1 0 1l-1 1c-1 2-2 2-3 1-2-1 0 3 1 4l4 2 2 2 2 4 1 2 6 6 2 4-3-1-2-2-4-4c1-1 0-2-1-2v-1l-1-1-2-2-3-3-3-3v-1l-3-2-2-2-2-1-1-1-5-1-2 1-4-2-1 2v3c-1 1-4 0-4-1l-1-1 1-1c2 0 3 0 2-2s-1-2-4 0l-2 1-2-1 1 1v1c1 1 0 2-1 3l-2 1-2 2 1-2c0-2-1-2-1-1-1 1-2 1-2-1v-1c-2 1-1-1 0-2v-1l2-1c-2 0-4-2-4-3-1-1-1-2-3-2l-2-1c-1-1-2 1-2 3s0 3-1 2l-3-1v-4l-2-1 1 1-2 1-1 1c2 0 2 5 1 6l-1 2 3-1 2-1 1-1 5 1 1 4-2-1c1-2-4-3-6-1v3l1 2c-1 1 0 2 1 2l3 4c4 4 4 5-1 3l-3-1-2-1-1-1 1-1-3 1-3-1c0-2-1-3-3-3-1 1-3 0-5-1l1-1v-2h-3c-3 1-3 1-5-2l-5-1-3 1c-4 0-4-1-2-2 2 0 2-2 0-2l-1-1 1-1 2-1c1-1-1-2-3-2l-1-2-1-2v-1c1 1 3 0 2-1v-5l-1 1-6 7v3l-2-1h-3c-3 0-5-1-5-3l-1 1-1-2v-2h-4l1-2 1-1c-1 1-2 1-3-1v-3l1-1 1-1v-1l1-1v-1c-3 0-4 0-3-1l-4 2-2 1c-3 0-4-1-2-3l2-2-4-1 1-1 1-1h-4l-1-1 2-1 4-1c3-2 4-2 6 0v2c7 0 7-1 6-1l-2-1-2 1v-2l-1-1c1-1 0-2-1-2v1h-6l-2 1c1 1-4 3-6 2h-5l-1-1c-3 0-3 0-2-1l2-1 1-1h-5c-2-1-2-2 0-2l1 1 1-1-2-1-3-2v-1l-6 1c-3-5-4-8-3-8 2 0 2 0 2-2l1-1 3-1c-1-1 0-2 2-3-2-1-8 1-9 2h3v1l-7 2c-1-1 9-6 11-8l1-3-2-1v-1l3-1c3 0 3-1 2-2-1-2 0-2 3-2l1-2v-1l-2-1v-1l3-2 2-2v-1l2-1 2-1 1-1c0-2 0-2-2-1l-5 1c-2 2-2 2-4 1l-3-1-2-1c-2-1-6 0-7 1l-1 1-1 1 1-3 3-1v-2l2-3 2-2-1-1c-2-1-3-2-1-3s0-1-3-1l-1-1v-2l-1-1c-1-1-1-1-2 1l-1 1c2 0 2 0 1 1L1 2c0-1 905-2 906-1l-2 1zM22 3V2h-1l1 1zM1 6v2l1-1h3V5L1 6zm4 3l1-1-2 1H3h2zm5 5c-1-1-1 0-3 1l-2 1h1l3-1 1-1zm7 1l-2-1-1 1 2 1 1-1zm0 2l-1-1v1h1zm-6 1H8l2 1 1-1zm24 13h-2s0 2 1 1h1v-1zm-16 4c0-1-2-2-4-1l-1 1h5zm11-2v-1l-2 1h2zm8 2h-1l2 1-1-1zm-10 6l-1-1v1h1zm1 4h-3c-4 0-5 0-3 1 1 1 5 0 6-1zm6 0l-1-1-1 1h2zm6-1v-1l-1 1h1zm-21 7h-2l1 1 1-1zm2 5h-2c-2 0-2 1-1 1l3-1zm-4 1l-1 1v1l1-1v-1zM873 3l1 3h4V5h-2l-1-1c0-1-1-2-2-1zM396 36h-1l-2 1 3-1zm-9 3h-2 2zm-35 3h-1 1zM892 5h-1 1zM280 50h-1 1zm176-10h-4 4zm31-2l-1-1-1 1h2zm406-28h-2l1 1 1-1zM467 40l-1-1v1h1zM7 74l-1-1c-4 1-6 2-5 3h4c3-1 3-1 2-2zm856-57h-4l2 3 3-1-1-2zM262 60h-2l-2 1c-1 1 1 2 3 1l5-1 3-1h-7zm611-41h-3c-5 0-4 1 2 2h3l-2-1v-1zM246 65h-2 2zM26 81l-2 1 2-1zm43-2c-1 1 0 2 1 1v-1h-1zm-20 2v2l1-1-1-1zm811-54h0zM73 82l-2 1-2 1v1h2l2-1-1-1v-1h1zm805-54l-1-1-1 1h2zm-6 1l-1 1-1-1 1 1h2v-1l1-1-2 1zM226 75l-1-2c-1 0-2 1-1 2 0 2 2 1 2 0zm641-45l-2-1-1 1-1 1h-7c-1 1-1 2 1 2l2 1h1l8 3h1l1 1h5l3-1c0-2-1-3-2-3l-4-1v-1h-2l-3-2zM235 74l-2-1 2 2v-1zM33 89v-1l-1 1h1zm512-35c-2-1-3-1-1 1h2l-1-1zM228 76v1l-1 1h1l1-1-1-1zM42 91l-1 1 2-1h-1zm6 0l-1 1c0 1 2 2 3 1 2-1 2-2 1-2h-3zm0 1v-1l1 1h-1zm8-1l-1-1-1 1h2zm3-1l-2 1 2-1zm504-32c0-1-1-2-2-1v1h2zM81 91c0-2-2-2-2 0 0 1-1 2-4 2s-5 2-1 2h1l1 1 2-1 1-1 1-1v-1l1-1zm154-11h-1l1 1v-1zm-28 4l-1-1h-1l-1 1 1 1 2-1zm636-45h-1l1 1v-1zM67 93l-2 1-1 1-3 1c-3 1-3 3 0 2l3-1h1l-1 1c-2 1-1 2 1 2s3-1 1-1v-1l1-1v-4zm27-2l-2 1h2v-1zm-43 4h-2c-1 1 0 1 1 1l1-1zm157-9l-1-1v1l1 1v-1zm12-2h-1 1zm8 1v-1h-1c-1 1 0 2 1 1zM56 97l-2-1 1 1h1zm33-3h-1v1l1-1zm-39 6c2-1 2-1 1-2h-2l-2 1 3 1zm29-5l-1 1-2 1v1c1 1 3 0 3-1v-2zm119-7v-1l-1 1h1zm4 0h-2l1 1 1-1zM88 97h-1 1zm7 0l-1-1-3 2-1 1v7l2 1v-3h2v-2l1-2v-3zm-2 3v-1l1 1h-1zm131-12h-3l1 1c2 2 5 2 5 1s-1-2-3-2zM76 99h-2l1 2h2v-1l-1-1zm29-2c-1-1-2 0-2 1l1 3v-1l1-2v-1zm-32 3h-1 1zm71-5h1v1h-1 2l2-1h-4zm30-2h-2v1l2-1zm-111 9l-1-1c-3 0-4 1-4 2v1l1 2 1 1h-8l-2 2 2 1h5c2 0 2 0 1 1-1 2 0 2 2 0l2-2v-6l1-1zm143-10h0zm6 0h-3l2 1 1-1zM72 104v-2l-1 2 1 1v-1zm79-7h-1l1 2 1 1 1-3h-2zm25-1h-2l2 1v-1zm21-2h-1l-2 1 3-1zm662-45h-3c-1 1-1 2 1 2l2-1v-1zM75 103h-1v2l1-1v-1zm99-5l-1-1v1h1zm23-1v-1 1zm-55 3h-4v1h3l1-1zm-64 6l-1-1v1h1zm27-3v1h1l-1-1zm-26 4h-2l-2 1c-1 1 0 2 2 1 2 0 2 0 1 1l2 1c3-1 3 0 0 2-2 1-2 2-1 3l1 2c0 1 1 2 3 1v1c-1 2 0 3 3 4l5 2 2 2-1-2v-3l-1-1v-1l1-1c0-2-1-2-2-1l-1 1-1-1-1-1 1-1v-6l-2-1-3-1-1-1-3-1zm6 8h2l-1 1-1-1zm61-12l-1 1 1-1zm9 0h-2c-2-1-2 0-2 1 1 1 0 1-1 1-1-1-2 0-3 1l-1 2v2l5 2 1-4h-1l-2-1v-1h4l1 1 1-1v-3zm-5 6h1l-1 1v-1zm39-7h-3l1 1 2-1zm-50 4l-1 2h2l-1-2zm-30 4h-3l1 1 2-1zm12-1h-3l-3 1h2l1 1c1 1 1 0 2-1l1-1zm40-2v1-1zm486-31h-1l2 2-1-2zm-512 35l-2 1c-1 1 0 1 1 2l2-1h-1v-2zm-22 3l-1-1 1 2v-1zm524-35l-1-1 4 4h1l-1-2-3-1zm22-2l-1-1 2 3h2l-2-1-1-1zm-515 36l-1-1h-1l1 1h1zm30-3l-1 2 1 1 1-1 1-2h-2zm-56 5h-1v1l1-1zm29-1h-1l-2 1h1l2-1zm-9 1c-2 0-2 1-1 1v1l1 1 1-3h-1zm511-35l1 1-1-1zm6 1v1h3l-1-1h-2zm-521 37l-4-1h-3l2 1h3l1 1h3l-2-1zm-16 2h-2 2zm722-48h-3l3 3v-3zm-697 49l-3-1c-1 0-1 1 2 2l1-1zm8 1h-2l1 1 1-1zm693-43h-1l1 1v-1zm-4 1c-2-1-2-1-2 1s1 2 2 0v-1zM712 90l-2-1 1 1 2 2-1-2zm112-5h-2 2zm12 7h-2l2 1v-1zM2 27v0zm0 8l2-2c1 0 2 1 0 2l-1 1-1-1zm16 5h1c0 1 0 2-1 1v-1zm-5 6c2 0 3 0 1 1l-2 1 1-2zm-3 3h0zm-1 2H7h2zm-2 3h1l-1 1v-1zm316-9l2-1v1h-2zM902 6V5c2 0 3 1 3 2 0 2-1 2-2 0l-1-1zM304 51v1l-1-1h1zm-8 2v-1l1 1h-1zm86-5l1 1-11 2-1-1h4l3-1c1-1 1-1-1-1h-2 7zm34 0h1v1l-4 1-3-1c1-1 1-1-2-1l-3 1h1v1l-3-1-3 1h-7l2-1 14-2 7 1zm485-34c-1-2 2 5 0 3-3-2-3-3-1-2l1-1zM420 48l2-1 5 1h-3l-1 1-3-1zm25-2l1 1-1-1zm6 0h3l-5 1 2-1zm11 1l1-1 4 2-2 1c-3 1-3 0-3-2zm-16 2h1-1zm-33 4l1-1 2 1h-3zm58-3c-1-1-1-1 2-1h3l2 1c1 1 1 1-2 1l-5-1zM12 81h1l1 1-2-1zm-3 2h2-2zm412-28h0zm21-1c4 0 6 1 4 2l-7 1h-2l-2-1h-1l1-1 3-1h4zM6 84l1-1 1 1H6zm443-30l1 1h-3l2-1zM17 87l-1 1c-1 1-1 0-1-1h2zm232-16c4-1 4-1 4 1l-4 1c-2-1-2-1 0-2zm240-16h-1 2l1 1c0 1-1 1-2-1zm22-2l1 1-1 1-1-1 1-1zm375-24h1l2 1 1 1c-1 1-1 1-3-1l-1-1zM18 88h2-2zm466-32l1 1v1l-1-1v-1zm7 0h4l-2 1v1h-1l-1-2zm-13 1v1h-2l2-1zm48-2l3-1 2 1h5l1 1v1h-4l-4-1h-1l-2-1zM242 75v-1 2-1zm643-44l2 1h-2v-1zM260 75l1-1 1 1-1 1-1-1zm260-17l-2 1h-2l2-1h2zm-25 2h0zM3 95l-1 1 1-1zm901-61h1-1zM26 95l3-1 1 1-2 1c-3 1-3 0-2-1zM5 96v1H4l1-1zm244-16c1-1 2 0 2 1l-3 1-2-1h1l2-1zm274-16h-2 3l11 1 6 1h6l10 2h2l-5 1-7-1-8-1-4-1-12-2zM241 86l1-1v1c-2 1-1 2 1 2s2 1 1 2h-3l-3 2c-1 1-3 1-3-1h-1c-2 0-1-2 1-3l2-1 2-1h2zm655-41h3c1 1 1 1-1 1-2 1-2 0-2-1zm-5 4h1l-1 1v-1zM591 70h1l1 1h-1l-1-1zm314-21c0-1-1 7-2 6l-2-1-1-1h-4l3-1 6-2v-1zM38 109c-1-1-1-1 1-1l1 1h-2zm196-14h1v1l-1-1zm654-45l1 1 1 1-2-2zm-23 3h-1 1zM243 97l-1 1v-2c1-1 1-1 1 1zm-4 1l1 1v2l-2-1 1-1v-1zm645-43l2 1c2 0 2 1 1 1l-2-1-1-1zm10 0l1-1 1 1h-2zm-2 0h1l-1 1v-1zm-35 3l3 1c1 1 2 2 4 1l4 1v1l-2 1-1 2 1 1c2 2 2 2 0 3h-1c0-1-1-2-2-1l-5-1c-1-2-2-2-2 0l5 2 2 1v1l-1 1h-1l-5-2-2-1-1-1v-2h2l1-1c0-1 0-2 1-1l2-1v-2c-2-1-2-2-2-3zM34 115h1l-1 1v-1zm561-37l2 1 4 3-3 1-1-1c1-1-1-2-3-3l-2-2 3 1zM64 115v-1l1 1-1 1v-1zm-60 5h2-2zm871-60c6 2 12 4 18 8 1 1 1 1-1 1l-3-1c1-1-5-3-7-3h-5l-1-1c2 0 1 0-1-2l-2-2h2zM47 118l1-1-1 2-1 1-1-1h1l1-1zm19-2h2c0 1-3 2-4 1v-1h2zm122-7h1l2 1h-3v-1zM58 119h1l-1 1v-1zm844-57l-1-1 3 1h-2zm-794 55h1c0 1-1 2-2 1l1-1zm125-7h2l-1 1-1-1zM45 124l1-1c2 0 2 0 1 1h-2zm165-12l1-1 2 1-1 1-2-1zm-52 5l1-1v1l1 1h-1l-1-1zm34-2c-1-1 0-1 1-1l2 1-3 1v-1zm690-48l1 1-1-1zm-653 45c1 0 2 1 1 2h-2c-2-1-1-1 1-2zm638-42l1-1h1l-1 1h-1zm-683 47h2c2 0 2 2 1 2l-1-1-1-1h-1zm715-49h4l-1 1h-4l1-1zM59 126v-1l1 1h-1zm7 0h-1v-1l1 1zm147-9c1-2 1-2 3-2 1 1 0 3-1 4l1 1h-1l-2-1v-2zm654-46c1-1 9 1 8 2l1 2c1 1-2 2-4 0l-3-1c-3-2-4-2-2-3zm-637 45c0-2 1-2 2 0s1 2-1 3l-1-3zM38 129l1-1h2l-1 1h-2zm95-5c1-1 2-1 2 1 0 1-2 2-3 1l1-2zm-53 4v1h-1l1-1zm54-1l1-1v2l-1-1zm100-7h1l-1 1v-1zM77 132l1-1v1h-1zm792-55l2 1h-1l-1-1zM86 132c1-2 1-2 1 0l2 2 2 1-2-1-3-1v-1zm55-3l-1 1c-2 0-2 0-1-1 1-2 2-2 2 0zm27-2l-1-1h2c1 0 2 0 1 1h-2zm11-1l1-1-1 1zm565-39l3 1c3 0 4 1 1 1l-6-1 2-1zm124-8h2l-1 1-1-1zM68 134h1l-1 1v-1zm10 0v-1h1l1 2 1 2-3-3zm690-48h1v1l-1-1zm-648 45l1 1v1l-1-1v-1zm116-8l2 3 2 2v3l-1 1h-1l-1-1-3-4v-1c-2 0-2-2-1-2l3-1zm518-34h2c2 0 2 0 1 1l-3-1zm26-1l2 1 4 1 4 1h2l2 1h2l4 1-1 1h1c1 1 2 2 0 2l2 3 2 2h-5l-5-2-6-3-2-1-1 1-1 1-3-1-2-2-1-1v-1l2 1 1 1 1 1h1c2-1 0-3-2-3s-3 0-1-2v-2zM94 136h3l1 1-2 1c-2 0-2-1-3-2h1zm679-46l1 1v1l-2-2h1zm-602 42h2l-1 1-1-1zm-99 8l-1-1 1 1zm584-40l1-1 1 1h-2zm-554 39v-1h1l-1 1zm641-44h3l1 2 2 1c0 1-2 1-4-1l-2-2zm-626 43h2l-1 1-1-1zm639-42c-1-1-1-1 1-1l1 1h-2zm18-2h1l1 1-2-1zm-655 47v-1l1 1h1-2zm684-46h4-4zM75 145h0zm694-47l1 1 2 1-3-2zm113-7h2c1 0 1 1-1 1l-1-1zM79 147h1l-1 1v-1zm48-3l2 2c2 0 3 1 3 2l1 2 1 2h-4v1c-2 0-2 0-1-1 1-2 0-4-2-4l-3-1-2-1 2-2h3zm20-1v-2c1 0 2 1 2 4l1 4-1 2-1-3-1-5zm612-38l2 2 5 2 2 2h1l13 9h-4l-2-1h-1l-1-1-3-1h-2l-1-1c0-1-4-5-6-5l-2-2-2-2-8-6 4 2 5 2zm6-3h2l1 1-3-1zm-21 1l2 1 1 3-3-4zM68 150l4 3-1 1-1-1-1-2-1-1zm780-52h0zm-77 6l1 1c2 0 2 1 1 2h-1c-1-1-2-2-1-3zm6-1l1 1c0 1 3 2 4 1s1 0 3 1l4 3 3 2-4-1-4-1-1-1-2-2-4-2v-1zm-636 45v-1l1 1-1 1v-1zm737-48h2l-1 1-1-1zm-35 3h1v1h2v1l-3-2zm-22 2h1l1 2 1 1h-3l-2-1c-1-2-2-2 0-1l1-1h1zM74 157h2l1 2c-1 1-3 0-3-2zm743-50l2 2h-5v-1l1-1h2zm-59 4h1l3 3 2 1 3 1 2 2 1 1 6 4h-2l-4-2-4-3-9-7h1zm35 5l-3-4 4 3 4 4-5-3zM74 165v2c-1 1-1 1-1-1l1-1zm735-49l2 1 2-1v2l-1 3h-1l-4-3 2 1 2 1-1-2-1-2zm6 3l1 1 1 1c2 0 4 1 3 2l-5-4zm3 6v-1h1l-1 1zm69-5h4l3 2v1l-7-3zm-42 8h0zm-47 5l1 2h-1l-1-1c-1-1 0-1 1-1zm-2 11l3 1 1 2-4-3zm26 1l3 1h2l3 1h1c1 0 5 1 4 2l1 1 10 6 1 2-6-3-9-4-4-2-4-2-2-2zm14 18l9 6c0 1-8-3-9-5l-2-1h2zm-5 1h1v1l-1-1zm-24 12l3 1 3 3c-2 0-6-3-6-4z"/></svg>
</svg>
