<svg version="1" xmlns="http://www.w3.org/2000/svg" width="413.333" height="413.333" viewBox="0 0 310.000000 310.000000"><path d="M100.7 16.8c-.8 1.2.1 6 1.8 9.7 3.1 6.7 13.5 14.7 23.5 18.1 4.2 1.4 8.7 1.9 19 2 18.7.3 19.4.3 18.7 1.1-.4.3-3.8.7-7.5.9-3.8.2-10.4 1.1-14.8 2-4.3.9-9.7 2-11.9 2.5-4.7.9-23.2.5-25.7-.6-1.5-.6-1.8-2.1-1.8-9.5 0-15.5-1.6-16.6-14-9.9C52.6 52.4 27.2 86.8 15.3 132c-3.5 13-3.6 14.2-3.7 31.5 0 14.9.3 19.9 2.2 29.3 4.8 23.8 14 44.9 26.6 60.7 8.9 11.2 20.1 20.9 32.1 27.6 4.9 2.7 5.7 3 4.5 1.3-17.6-24.5-23.7-37.7-22.8-49.1.4-4.4 1.1-6 3.7-8.7l3.3-3.4-2.6-3.8c-8.9-13.6-6.8-28.7 5.6-39.9 4.8-4.4 5-4.6 3.8-7.5-4.1-9.8 2-19.7 16.8-26.9 19-9.5 29.3-8.2 29.6 3.6.1 2.6-.3 6.7-.7 9l-.9 4.1 4.5-1.3c6-1.8 14.6-.1 21.5 4.4 10 6.4 24.8 25.4 27.7 35.6 1.1 4 1.4 12.8 1.2 43.8-.1 21.3.1 38.7.5 38.7s1-1.1 1.4-2.5c2.2-8.7 35.3-25.7 60-30.9 6.8-1.4 10.8-2 21.9-3.1 12.7-1.2 20.4-2.8 32-6.7 5-1.7 9.4-3.4 9.8-3.8.7-.6-21.6-69.2-22.9-70.9-.4-.5-12.4 3-12.4 3.6 0 .2 1.1 2.8 2.4 5.7 3.1 6.7 4.7 12.6 3.5 12.6-.5 0-.9-.7-.9-1.5 0-2.3-6.1-13-10.3-18-5.7-6.7-12.5-10.8-27.7-16.5-18.9-7.2-44.7-20-48.8-24.2-1.8-1.9-4.3-6.1-5.6-9.2-3.8-9.2-2.1-16.8 4.9-22.2 4.5-3.4 9.5-3 18.8 1.4 8.2 3.8 11.8 7.3 15.7 14.9 4.6 9.4 12 11.6 19.5 5.8 5.3-4 4.8-6-1.2-5.6-6.9.4-11.1-1.9-6.3-3.4 3.1-1 2.4-2.5-1.1-2.5-2.6 0-4.4-1.3-9.8-6.8-3.6-3.7-8-7.7-9.6-8.9l-3-2.2 5.5-.1c7.7 0 13.1 1 13.7 2.7.3.8-.5 2.6-1.8 4l-2.4 2.6 6.3-.6 6.4-.5-1.9 2.1c-1 1.2-2.5 2.7-3.3 3.4-1.3 1-.9 1.2 2 1.3 1.9 0 5-.4 6.8-.9 3.7-1.1 4.2.1 1.7 4.9-1.5 2.9-1.5 3 .7 3 5.1 0 17.8-9.6 17.8-13.4 0-2.1-2.3-4.3-9.5-9.2-8.4-5.7-13.5-11.2-19.5-21-2.8-4.4-7.5-10.1-12-14.2-8.1-7.5-14-16.7-18-28-1.3-3.4-2.8-6.2-3.5-6.2-1.6 0-5.1 8.1-6.7 15.2-1.5 7.1-2.2 7.8-6 6.8-4.6-1.4-13.9-2.2-28.8-2.5-19.5-.4-28.9-3.9-39.5-14.4-2.9-2.9-5.5-4.9-5.8-4.3zm5.8 41.2c2.4 1.7 6.8 3.6 9.7 4.4 5.4 1.4 18.4 1.4 26.8.1 7.3-1.1 9-1.3 9-.6 0 .7-8.5 4.4-15.5 6.8-10.9 3.6-16.3 8.4-21.1 18.6-3.5 7.5-3 8.5 1.7 3.3 5.2-5.8 9.2-8.3 14.7-9.1l4.3-.6-4.1 5.2c-7.2 9.1-11.6 19.8-12.2 29.7-.2 3-.5 3.3-2.8 2.7-6.2-1.5-10.7-6.9-14-16.5-1.9-5.5-2.3-8.9-2.5-22.5-.2-15.5.2-24.5 1.2-24.5.2 0 2.4 1.4 4.8 3zm103.3 9.5c3.5 4.9 3.9 6.5 1.9 6.5-2.4 0-7.7-5.8-7.7-8.4 0-3.9 2.2-3.1 5.8 1.9zm54.9 120.7c-.3.8-.6.5-.6-.6-.1-1.1.2-1.7.5-1.3.3.3.4 1.2.1 1.9z"/><path d="M76 168.6c.8 1 2.2 2.9 3.3 4 1.8 2.1 1.7 2.2-3.2 5.3-9.6 6.2-15.3 14.4-15.3 22 0 6 1.9 10.4 7.6 17.4 2.5 3.1 4.6 5.9 4.6 6.1 0 .3-2.2 1.7-5 3.3-4.7 2.6-6.9 5.8-6.4 9 .1.7.2 2.2.3 3.3.2 3.2 3.3 4.2 17.1 5.5 21.6 2 33.6 4.9 52 12.8 18.9 8.1 28.7 15.3 31.5 23.3 1.3 3.4 1.4-1.2 1.2-39.1-.1-33.2-.5-43.6-1.5-45.5-2.6-5.1-18-13.2-36.9-19.6-9.7-3.3-14.8-4.2-31.3-5.9-7.9-.8-10.7-1.3-17.5-3.2-1.8-.5-1.9-.4-.5 1.3zM285.2 243.6c-10.5 3.8-20.4 6-30.7 6.9-16.5 1.4-27.6 3.5-39 7.5-10 3.4-23.7 9.2-23.2 9.7.3.2 1.7-.1 3.2-.7 3.5-1.3 24.5-6.6 30-7.6 2.2-.3 14.8-.8 28-1 13.2-.1 25.1-.5 26.5-.8 1.4-.3 6.5-1.3 11.3-2.3l8.9-1.7-.7-4c-.7-4.7-2.6-8.9-4-9.1-.5-.1-5.2 1.3-10.3 3.1z"/><path d="M67.6 253.8l2.7 4.8 15.6.1c16.1.2 28.3 2.1 45.5 7.2 9.8 2.9 7.1 1.1-6.5-4.3-11.5-4.6-23.1-8-30.6-9-7.8-1.1-11.9-1.6-17.7-2.1-3.3-.3-7.2-.8-8.8-1l-2.9-.6 2.7 4.9zM29.9 260.7c-.1 1.6-.9 7.9-1.3 10.6-.3 2.1 0 2.8 1.7 3.2 2.6.6 19.7 1.5 19.7 1 0-.2-3.1-3.5-6.8-7.4-4.8-4.9-7.8-7.2-10-7.6-1.8-.3-3.2-.2-3.3.2zM296.9 260.4c-.2.3-1.6.7-2.9.9-1.4.3-3.6.8-5 1.1-1.4.3-3.8.9-5.5 1.2-1.6.4-12.7.8-24.5 1-19.8.2-31.2.8-36.4 1.9-12.9 2.6-35.4 9.2-27.6 8 1.9-.3 4.6-.7 6-1 1.4-.3 4.5-.7 7-1 2.5-.3 6.1-.8 8-1.1 4.8-.7 24.5-.6 30.3.1 2.6.3 9.2 1.4 14.7 2.4 9.9 1.7 35 2.2 39.6.7 1.8-.6 2-1.2 1.3-5.9-.4-2.8-.8-6-.8-7-.1-1.5-3-2.4-4.2-1.3zM79.7 264.8l-5.7.3 2.7 3.5 2.7 3.6 6.5-.7c7.7-.8 25-.8 30.7 0 2.1.4 7.7 1.3 12.3 2 8 1.4 12.6 1.3 6.5 0-1.6-.4-4.7-1.3-6.9-2.1-6.5-2.2-21.8-5.3-29.7-6-10.9-.9-12.8-.9-19.1-.6zM87.3 277.8l-3.3.7 2.3 2.7c2.1 2.6 2.4 2.7 6.7 1.6 2.5-.6 12.5-1.1 22.2-1.2 9.8-.1 17.8-.4 17.8-.7 0-.4-2.6-1-5.7-1.4-3.2-.5-6.7-.9-7.8-1.1-5.1-.8-29.3-1.2-32.2-.6zM213.5 278.1c-2.7.4-7.5 1-10.5 1.4-10.6 1.4-7.7 2 8.4 1.8 17.3-.1 30.6 1.6 42.9 5.6 15.8 5 30.5 7.7 42.7 7.6 5.5 0 6.5-.3 6.4-1.8-.1-.9-.2-3.8-.3-6.5l-.1-4.7h-18.2c-17.9 0-21.7-.3-32.8-2.6-6.5-1.3-31.4-1.9-38.5-.8zM27.9 285.3c-.1 2.3-.2 5.5-.3 7l-.3 2.8 10.1-.6c10-.7 20.3-2.3 28.6-4.5l4.2-1.1-5.3-3.3c-5.4-3.3-5.5-3.4-21.1-3.9l-15.8-.5-.1 4.1z"/></svg>